<?xml version="1.0" encoding="UTF-8" standalone="no"?>
<!-- Created with Inkscape (http://www.inkscape.org/) -->

<svg
   width="873.125mm"
   height="674.6875mm"
   viewBox="0 0 873.125 674.6875"
   version="1.1"
   id="svg6000"
   xml:space="preserve"
   xmlns="http://www.w3.org/2000/svg"
   xmlns:svg="http://www.w3.org/2000/svg"><defs
     id="defs5997" /><g
     id="layer1"
     transform="translate(229.22525,230.46457)"><path
       style="fill:none;fill-opacity:1;stroke:#ff0000;stroke-width:0.25;stroke-linecap:round;stroke-linejoin:round;stroke-dasharray:none;stroke-opacity:1"
       d="m 231.27968,241.88361 1.96657,-9.95435 0.97101,-0.58261 c 0,0 -7.85793,43.10847 -8.70367,54.81906 -0.88606,12.26893 -1.68659,24.71975 1.27299,44.61764 2.60226,-6.33121 6.51142,-13.50086 11.7431,-20.70855 2.92547,2.60009 9.73566,7.70919 16.1231,13.45208 -1.2316,-14.0061 -0.23012,-30.59306 1.08468,-42.59519 0.53568,-4.88997 0.86743,-9.80955 1.45718,-14.30059 2.04904,-15.60375 4.56037,-29.34957 8.47856,-45.05887 l 0.68499,0.21028 c -1.22275,4.71353 -2.31544,9.2053 -3.24276,13.56069 -2.34511,11.01445 -3.99419,21.31594 -5.21767,31.27437 -0.58459,4.75834 -0.68517,9.28964 -1.39041,14.19223 19.43475,6.3867 58.78997,12.35655 107.20313,24.66877 49.28039,12.53276 102.07275,31.32068 148.98333,37.72998 3.47474,0.47475 11.49909,-1.11272 11.69976,-4.61399 3.62218,-63.19868 13.9585,-276.258106 13.9585,-276.258106 l -11.06338,3.036012 c 0,0 -3.64807,107.617214 -6.84997,160.948274 -1.58995,26.48236 -4.53844,52.11295 -5.71257,79.31673 -0.31681,7.34036 -2.56827,20.45038 -2.7824,23.64983 -0.0753,1.12509 -2.87412,1.37211 -3.36958,0.29899 -0.39851,-0.86313 -4.11964,-11.37019 -4.11964,-11.37019 1.8266,-3.18725 2.80135,-12.79834 2.80135,-12.79834 -0.93116,4.29751 -1.87913,8.5502 -3.24077,11.69976 l -3.2553,-9.37523 -0.69956,0.36696 7.03084,19.93904 c -6.66642,0.99184 -12.69252,1.77903 -18.51284,1.22904 -11.71973,-1.10747 -22.04086,-4.50669 -32.51571,-7.82045 -30.37161,-9.60818 -52.54234,-20.04704 -67.17175,-27.94147 -22.5418,-12.16417 -31.40593,-21.00474 -57.66347,-32.59754 -31.96814,-14.11404 -69.9867,-8.01175 -69.9867,-8.01175 l 3.26906,-20.05832 c 16.95337,-1.28872 38.40393,0.87097 56.20907,6.43606 20.88874,6.52889 40.41301,19.33664 58.00448,30.75995 13.62604,8.84829 29.42338,13.79229 44.25792,20.41781 32.27632,14.4155 77.2506,15.84684 77.2506,15.84684 l 1.22566,-13.30613 c 0,0 4.33127,0.1001 5.08717,0.0981 1.21302,-0.41326 2.00466,-3.86798 2.2493,-5.91895 l 10.17234,-219.870448 -5.84241,1.744383 -9.16363,217.906345 c 0,0 -20.51703,1.7541 -43.48014,-3.69997 -25.20528,-5.98661 -54.0316,-17.30519 -72.8584,-26.29098 -8.32617,-3.97398 -17.18281,-9.68054 -25.84508,-14.55968 -17.5206,-9.86872 -36.5977,-18.98812 -57.39432,-21.19486 -14.79974,-1.5704 -37.80965,-0.52491 -37.80965,-0.52491 0,0 6.72801,-36.16852 9.49446,-55.0351 1.60524,-10.94731 4.15656,-33.39123 4.15656,-33.39123 l -32.12589,8.94936 c 0.27501,4.15489 0.32085,9.66723 -1.49281,22.62243 -1.02346,7.3107 -2.76861,17.73729 -3.676,23.2074 -2.4165,14.56761 -8.70222,43.4369 -8.70222,43.4369 0,0 -10.36785,4.93155 -15.07946,7.62375 -7.05108,4.02897 -14.22216,10.29999 -19.6532,16.31292 L 198.63955,153.51068 582.92552,49.263304 582.77016,-76.734644 544.80928,-66.222592 v 17.400458 c 2.02864,0.0014 6.01242,1.111353 7.65196,2.343591 3.77029,2.833646 5.94728,7.804584 5.30838,12.197969 -0.89497,6.154255 -6.76765,12.189843 -13.07687,11.461305 l -2.43584,8.385676 8.74506,7.347449 12.25906,-7.786698 c 1.44138,-0.802468 4.35522,-1.079565 5.4548,0.859189 1.43466,2.529556 0.71686,4.6896119 -1.38176,6.1288732 l -13.53688,8.26588024 c -2.98097,1.55994846 -4.03512,1.65350886 -6.7884,-0.31945431 l -6.98806,-5.79010933 -5.35086,18.5682822 19.04746,4.47236 c 2.25572,0.721056 3.70238,3.157985 2.91502,5.790109 l -6.66861,21.64303 c -0.73669,2.131278 -2.65476,3.739647 -5.02092,2.993515 -2.55629,-0.806092 -3.18276,-3.323028 -2.52619,-5.389423 l 5.47066,-18.049168 -13.97613,-3.274407 0.63891,9.383971 c -0.0317,2.384876 -0.84076,3.531837 -2.95495,5.191132 l -19.12733,13.057695 c -1.8273,1.257301 -4.33393,1.056722 -5.65158,-0.889691 -1.07877,-1.593541 -1.21486,-3.758199 0.70004,-5.259804 l 18.84781,-13.017764 -0.63891,-14.335512 6.9082,-24.7577087 -11.97954,1.876794 -8.26681,8.8535142 c 0,0 -2.05384,1.8358332 -3.29929,1.9533665 -1.52997,0.1443841 -3.55443,-0.2705033 -4.37125,-1.5722219 -0.6457,-1.0290109 -0.28586,-3.3350158 -0.28586,-3.3350158 h -7.76582 c -0.2592,0.7734867 -0.36603,1.62247425 -1.47694,2.00100948 L 488.2796,2.1766093 V 30.095457 l 24.46781,-7.944836 c 1.3416,-0.439842 2.55123,0.395866 2.71651,1.667591 0.14171,1.090424 -0.56628,1.83152 -1.31413,2.179939 l -32.94111,10.503607 c -1.14776,0.25413 -2.19484,-0.59619 -2.41099,-1.611977 -0.21416,-1.006441 0.2841,-1.824121 1.04908,-2.126312 l 7.57525,-2.342376 V 2.5101109 l -5.24074,1.4769356 c -1.03083,0.2678137 -2.23857,-0.8480952 -2.28687,-1.1910771 l -14.70351,0.5049444 -2.30508,44.0889822 -7.23579,1.85808 0.0238,3.668518 8.73655,-2.477441 0.083,16.096377 -163.4578,42.04356 -1.61706,-14.014522 -6.8725,1.751815 -1.2128,14.553537 -77.88838,19.94374 -36.32229,10.67143 c -2.25286,5.86808 -6.61412,9.50373 -11.91077,12.14898 l 0.0477,-5.57424 c 1.30588,-1.15673 2.86098,-1.77348 3.14444,-5.14545 l -133.03166,35.25912 -8.369689,-31.95923 -0.147721,34.17849 -56.741447,15.07194 -62.562347,16.40409 -61.321836,13.93149 -0.25456,-13.51497 c 0,0 2.7624,-0.80714 3.63161,-1.42718 1.51049,-1.0775 2.06158,-3.36735 2.17172,-5.26152 0.19092,-3.28284 0.0474,-7.00152 -0.0156,-9.9658 -0.0596,-2.80486 0.48761,-5.70976 -3.02791,-5.64336 -0.89826,0.017 -3.62272,0.41991 -3.62272,0.41991 l -0.0796,21.94054 0.24774,13.68566 -20.76377,5.4493 -0.19058,-78.70637 20.67132,-5.60455 -0.0337,13.54122 -0.0231,17.55577 c 0,0 2.65062,-0.49065 3.67529,-0.97259 1.97796,-0.93031 2.64377,-2.42955 2.86676,-4.93854 0.19412,-2.1844 0.24222,-4.38172 0.23822,-6.57473 -0.006,-3.37767 -0.47765,-5.6845 -2.66801,-5.6219 -1.09615,0.0313 -3.23973,0.57171 -3.23973,0.57171 l -0.0477,-13.76883 c 0,0 11.83793,-3.6958 18.84523,-0.69335 4.12654,1.76811 5.79764,9.0926 5.98021,12.46458 0.30379,5.61106 0.73919,12.17215 -3.38605,16.2429 -2.13203,2.10386 -7.52761,4.90723 -7.52761,4.90723 0,0 6.09939,-0.75161 9.25672,1.96154 4.35825,3.74511 3.21872,11.25743 3.3687,17.04806 0.0858,3.31397 0.39395,10.90592 -3.06652,16.33308 -2.19521,3.44282 -6.51093,5.22934 -11.42864,7.01336 l 42.332592,-9.83365 c -3.709712,0.0726 -7.588792,-0.97212 -10.510892,-3.63838 -3.43175,-3.13129 -4.53745,-8.1299 -4.64905,-13.13861 -0.30217,-13.56205 0.13476,-27.1306 0.13476,-40.69601 0,-8.84227 6.51761,-16.93183 12.8691,-21.29128 3.163607,-2.17139 10.645646,-4.37954 10.645646,-4.37954 l -0.134755,13.27337 c -2.330332,0.69262 -3.163242,2.2817 -3.166742,4.71642 l -0.06738,46.55785 c 0.08094,2.02889 0.276045,4.44718 2.79856,4.31216 3.475671,-0.18604 3.526751,-5.22753 3.526751,-5.22753 l 0.134755,-46.62523 c -0.14436,-2.9474 -0.948357,-3.77521 -2.421628,-3.78421 l 0.0042,-13.35759 c 4.954881,-1.2321 11.579291,-1.37301 15.846674,1.1536 4.233237,2.50639 6.470155,7.7458 6.724787,12.65879 0.690751,13.3277 0.384816,28.38177 0.134755,41.10027 -0.321606,16.35735 -12.185293,22.98129 -18.408882,25.49859 l 48.842676,-12.97998 c 0,0 -6.446435,0.45654 -9.909761,-1.66751 -4.437943,-2.72178 -7.07581,-7.27644 -7.09882,-13.91178 -0.04535,-13.07565 0.07176,-28.85916 0.190572,-41.49712 0.08318,-8.84788 4.004462,-13.29274 8.575756,-18.19966 3.579927,-3.84277 10.134489,-6.39181 14.054709,-7.43232 v 13.43535 c 0,0 -2.46042,0.8219 -2.47744,3.19208 -0.11266,15.68601 -0.09529,47.07137 -0.09529,47.07137 0.04059,1.86646 0.365073,4.0168 0.714646,4.50227 0.732551,1.01733 2.930334,0.4696 4.002019,-0.3335 1.326406,-0.99399 1.752301,-3.91153 1.715151,-4.69284 l -0.09529,-46.92844 c 0.0038,-1.83181 -0.760171,-3.46743 -3.144444,-2.95387 l 0.04764,-13.38771 c 0,0 4.932404,-0.96069 7.432322,-1.14343 7.969539,-0.58255 15.6053147,5.1225 15.9128004,14.12617 0.4849953,14.20143 0.2618179,25.86388 0.047643,41.56859 -0.057106,4.18735 -1.4746755,11.12924 -4.8858454,15.5782 -4.769209,6.22016 -11.979806,9.38678 -11.979806,9.38678 l 30.9680043,-8.2899 0.095286,-79.08752 20.1053817,-5.24074 0.381145,30.39629 8.9569,-32.77844 19.152519,-5.145453 -11.815484,38.686183 12.958918,39.73433 32.888633,-8.92454 -0.0073,-78.232763 20.550128,-5.12069 -0.0198,78.093903 22.75385,-6.11161 0.10684,-62.212556 -12.12795,3.166742 -0.13475,-15.901089 44.87341,-11.386796 -0.0674,15.631579 -12.12795,3.301497 v 62.189433 l 12.19533,-3.03199 -0.13475,-14.89043 13.27336,-3.36887 c 0,0 0.15976,6.16212 -0.0674,9.23071 -0.16578,2.23945 -0.94329,6.67038 -0.94329,6.67038 l 36.04707,-10.71303 0.26951,-77.551494 23.0431,-5.861842 v 13.610254 l -2.6478,0.443734 0.0242,17.621609 1.72732,-0.569454 -0.0953,12.487097 -1.68171,0.110583 -0.0218,22.292433 c 0,0 3.05112,-0.64723 4.14372,-1.54968 1.47455,-1.21793 2.75748,-2.90501 2.76248,-4.81749 0.0114,-4.20709 -0.0183,-9.227956 -0.16845,-13.576567 -0.0975,-2.824825 -1.90252,-2.804796 -4.27847,-2.526656 l 0.17566,-12.608698 c 0,0 1.78863,-0.602387 2.48574,-1.203689 1.0775,-0.92941 1.26006,-3.016833 1.54934,-4.668782 0.43389,-2.477824 0.13908,-5.74629 0.13508,-7.593922 -0.003,-1.682066 -1.02773,-4.216416 -3.43625,-3.840518 V 46.456937 c 0,0 8.36888,-1.486675 11.54468,-1.375459 8.33431,0.291866 10.39475,8.01749 10.57488,12.603679 0.19376,4.933161 0.89212,10.744107 -1.58986,15.188547 -1.7929,3.210507 -8.73864,6.732961 -8.73864,6.732961 5.23802,-0.523922 11.35499,1.9179 11.60578,7.529435 0.30594,6.84557 0.4326,12.291127 0.0505,19.08468 -0.32218,5.72863 -3.42662,11.9233 -9.53629,14.34889 l 18.96919,-5.0508 10.174,-80.516107 15.09256,-3.638385 0.16675,18.935059 -3.53563,32.608725 7.14202,-1.953947 -2.96461,-30.454628 0.20213,-19.539474 13.4755,-3.50363 11.62261,74.789027 9.41879,-2.258246 0.23582,-78.124204 23.0431,-5.861851 V 29.61147 l -2.6478,0.44373 0.0242,17.62161 1.72732,-0.56945 -0.0953,12.48709 -1.68171,0.11059 -0.0218,22.292435 c 0,0 3.05112,-0.64723 4.14372,-1.54968 1.47455,-1.21793 2.75748,-2.90501 2.76248,-4.81749 0.0114,-4.20709 -0.0183,-9.22797 -0.16845,-13.576575 -0.0975,-2.82482 -1.90252,-2.80479 -4.27847,-2.52665 l 0.17566,-12.6087 c 0,0 1.78863,-0.60239 2.48574,-1.20369 1.0775,-0.92941 1.26006,-3.01683 1.54934,-4.66878 0.43389,-2.47783 0.13908,-5.74629 0.13508,-7.59392 -0.003,-1.68207 -1.02773,-4.21642 -3.43625,-3.84052 V 15.934269 c 0,0 8.36888,-1.48668 11.54468,-1.37546 8.33431,0.29186 10.39475,8.017491 10.57488,12.603681 0.19376,4.93316 0.89212,10.7441 -1.58986,15.18854 -1.7929,3.21051 -8.73864,6.73297 -8.73864,6.73297 5.23802,-0.52393 11.35499,1.9179 11.60578,7.52943 0.30594,6.84557 0.4326,12.291135 0.0505,19.084685 -0.32218,5.72863 -3.42662,11.9233 -9.53629,14.34889 l 33.02044,-8.329837 0.19057,-27.942669 -14.62642,-46.3090774 18.72373,-4.7166653 5.09781,29.4434257 5.71717,-32.20672455 18.81902,-4.85959455 -14.95993,53.9796141 0.0476,27.728275 25.15555,-6.384173 V 55.251435 l 8.85566,-2.137984 -0.0357,-3.71616 -7.24771,1.947411 -3.19208,-58.5533502 21.6776,-5.5265978 -0.80306,15.1262905 14.69103,-0.4522206 c -0.0177,-0.7060906 0.0127,-1.51354902 1.16726,-1.90572337 l 6.48525,-1.93652203 0.0505,-22.9192135 -8.06036,2.129984 c -1.21246,0.186456 -2.18787,-0.831258 -2.33424,-1.722757 -0.19533,-1.189654 0.42261,-2.101995 1.33374,-2.326905 l 37.30453,-9.623903 c 1.20676,-0.311323 2.69778,-0.07922 3.0345,1.275146 0.25176,1.012629 -0.10161,2.191837 -1.79578,2.631587 l -28.63349,7.432321 -0.0505,22.9808112 c 0,0 3.95788,-1.2450388 5.38656,-1.5890661 1.33211,-0.3207719 2.26983,0.2780776 2.57272,0.9528616 h 8.37327 l 10.35046,-10.9579097 2.19159,-1.619864 2.28686,-0.524074 15.19815,-2.572727 2.14394,-7.051176 c 0,0 -6.11191,-4.215012 -5.23465,-12.490952 0.57436,-5.418417 6.17413,-10.925624 12.16672,-10.925624 v -17.103414 l -345.53856,93.742965 -0.95836,-114.52437 c 2.20138,-4.028891 5.22983,-7.138805 8.78499,-9.663493 0,0 6.73923,15.737186 9.51173,23.717286 3.81987,10.994756 6.90926,22.090546 10.06757,33.293277 5.12397,18.175084 14.5698,52.729721 14.5698,55.060275 l 31.342,-8.8096438 c 0,0 -7.13475,-24.4774832 -10.54495,-36.8146982 -2.99658,-10.840855 -5.75734,-21.803336 -8.785,-32.664203 -4.97007,-17.82871 -18.44386,-52.113289 -19.80617,-51.432139 -2.25181,-0.34059 24.91856,-11.75751 45.68197,-11.81981 21.17818,-0.0635 39.12078,3.22865 52.32789,8.42239 24.01892,9.44551 40.76875,22.151843 61.23812,31.189941 27.83524,12.290444 54.48333,22.34145 84.56653,26.908349 12.00187,1.821992 38.90256,0.404994 38.90256,0.404994 l 4.37797,-1.099543 -0.23472,-2.461238 c -0.1332,-0.792153 -2.31448,-2.82899 -5.08303,-2.79038 0,0 -15.13926,1.54306 -25.79883,0.526791 -25.71247,-2.451393 -40.71041,-6.01936 -69.561,-17.054804 -5.40204,-2.066297 -24.99487,-9.682472 -35.73773,-16.003188 -16.16693,-9.512042 -37.54323,-21.605202 -51.48912,-26.446052 -20.67512,-7.17666 -44.10151,-9.70079 -65.32841,-6.54882 -13.00338,1.93086 -27.22308,6.69949 -36.25806,11.81981 l -2.47578,-3.9133 c -11.70893,5.42158 -17.76413,10.91265 -25.15702,16.8512 l 1.757,4.79182 c -4.28586,2.768605 -6.45751,5.53721 -8.785,8.305815 0,0 -7.97542,-13.239355 -26.74085,-23.007705 -17.66353,-9.19475 -26.98194,-15.41097 -61.17422,-15.73802 -33.668029,-0.32203 -59.349455,11.40497 -95.550757,32.913534 -15.2152194,9.039939 -54.388193,23.77834 -79.461292,29.665316 -12.044745,2.828017 -41.925491,6.219109 -55.168141,3.992042 -2.65557,-0.03262 -4.03369,2.037028 -4.06599,2.710659 l -0.39531,18.974619 c 0,0 -6.05102,12.590425 -9.42804,18.524345 -1.10047,1.933681 -3.44759,5.363343 -3.44759,5.363343 l 0.16942,8.640228 c -2.5485,0.394397 -3.92064,2.2085506 -5.13565,3.8389561 -2.4583,3.2987753 -6.14161,7.68334128 -6.04981,10.7576164 0.53845,18.0214555 7.15865,116.1224715 7.15865,116.1224715 l 14.90307,-4.3118 -5.84942,-133.932882 7.82663,-14.854625 1.95666,147.867417 5.86997,-1.55735 -3.79234,-172.378674 c -1.45189,1.314912 31.002576,3.93339 65.271996,-5.648724 18.042416,-5.044861 39.208425,-11.669889 56.79830497,-20.273858 C 20.483779,-95.690513 37.275114,-107.15921 57.160449,-115.47276 c 15.507397,-6.48325 33.958222,-11.12179 50.958051,-10.84928 21.15518,0.33912 35.64243,4.50177 52.85801,12.8103 21.21419,10.23832 31.15847,23.288042 31.15847,23.288042 l 0.0799,119.7754 -395.64416,107.356618 2.63546,124.90663 394.65737,-107.13952 -0.46608,99.64108 c -21.28607,-20.92542 -48.19902,-36.11135 -91.50833,-34.82926 -21.549118,0.63792 -43.121383,7.99717 -62.665723,18.31052 -13.942796,7.35747 -26.468745,15.84314 -40.5180174,22.10045 -33.7587906,15.03559 -64.5103096,27.44294 -110.1986396,27.46434 l -1.31941,-48.33698 -5.2841,1.28218 1.39906,43.7302 c 0,0 0.8547,7.48769 2.54057,8.85484 2.89403,0.56331 3.55787,0.41209 5.72521,0.32689 l 0.93218,12.07934 c 34.727375,-0.0411 48.600641,-4.37525 71.153147,-12.69964 0,0 41.9857859,-17.59138 62.069093,-29.6363 12.446833,-7.46496 21.991679,-14.6331 36.388157,-20.61431 16.421383,-6.82248 39.523663,-10.34294 56.983933,-10.14721 10.97782,0.12306 24.84703,2.00375 38.18452,7.40238 17.03847,6.89668 38.68789,24.8021 38.68789,24.8021 l 0.29376,11.50275 c 0.10787,4.22361 -11.64696,1.44919 -11.64696,1.44919 0,0 -4.5255,-5.05309 -7.36823,-6.87434 -18.91505,-12.11827 -42.35557,-18.03385 -64.81561,-18.45597 -20.654786,-0.38819 -42.293809,3.93421 -60.421334,13.84197 -10.794511,5.89984 -22.563269,13.65677 -34.72219,20.42019 -29.066202,16.16813 -60.079607,30.73945 -94.140037,39.18112 -12.739542,3.15742 -33.199899,5.47515 -40.344009,4.51279 0.90301,-2.01619 3.24802,-6.70139 6.44861,-12.72857 2.84917,-5.36539 3.94583,-11.01442 3.94583,-11.01442 l -0.81309,-0.01 c -0.82683,4.00533 -1.19282,5.39173 -3.53448,10.33152 -0.82688,-2.43986 -2.6474,-8.50811 -3.5733,-13.05034 0.49796,5.06915 1.12055,10.01367 3.14606,13.55527 l -6.40864,12.66194 c 0,0 -2.19839,-11.257 -2.81073,-16.95198 -0.96522,-8.97689 -0.57969,-16.86381 -1.35137,-27.05216 -0.77168,-10.18835 -2.82074,-21.45652 -3.45987,-34.04396 -0.15521,-3.05692 0.0648,-9.49812 0.0648,-9.49812 l -11.84961,3.51875 c 0,0 2.04279,30.55981 3.06571,45.83961 1.06718,15.94082 2.4813,45.12248 3.20471,47.82225 0.7234,2.69977 5.28786,5.38727 10.10684,4.28442 0,0 44.215701,-9.87975 66.24375,-15.16026 29.875814,-7.16175 57.0905906,-15.67454 86.826748,-23.41263 27.996941,-7.28551 58.51122,-13.81372 86.747262,-20.09073 15.36711,-3.41618 43.87998,-9.8283 46.24979,-8.56884 4.7082,2.50221 9.70933,8.11601 14.94055,8.78855 4.02224,0.51712 24.88434,0.12398 35.70351,-1.31828 2.86086,-0.38137 9.99699,-7.25056 9.99699,-7.25056 l 1.97742,-13.2927 c -6.52944,2.90901 -12.38081,4.73133 -16.91797,12.19413 l -13.56734,0.35704 -0.43942,-11.48006 c 7.52553,-7.41908 15.56121,-12.8004 24.34866,-17.50243 3.23816,-1.73268 6.84693,-3.44027 10.18586,-5.02758 z"
       id="path6924" /></g></svg>
