<?xml version="1.0" encoding="UTF-8" standalone="no"?>
<!-- Created with Inkscape (http://www.inkscape.org/) -->

<svg
   width="1366"
   height="468"
   viewBox="0 0 361.42084 123.82499"
   version="1.1"
   id="svg5"
   inkscape:version="1.2.2 (732a01da63, 2022-12-09)"
   sodipodi:docname="Phil in the Blank Logo.svg"
   xml:space="preserve"
   xmlns:inkscape="http://www.inkscape.org/namespaces/inkscape"
   xmlns:sodipodi="http://sodipodi.sourceforge.net/DTD/sodipodi-0.dtd"
   xmlns:xlink="http://www.w3.org/1999/xlink"
   xmlns="http://www.w3.org/2000/svg"
   xmlns:svg="http://www.w3.org/2000/svg"><sodipodi:namedview
     id="namedview7"
     pagecolor="#ffffff"
     bordercolor="#666666"
     borderopacity="1.0"
     inkscape:showpageshadow="2"
     inkscape:pageopacity="0.0"
     inkscape:pagecheckerboard="0"
     inkscape:deskcolor="#d1d1d1"
     inkscape:document-units="px"
     showgrid="false"
     inkscape:zoom="0.526"
     inkscape:cx="473.38403"
     inkscape:cy="214.8289"
     inkscape:window-width="1366"
     inkscape:window-height="705"
     inkscape:window-x="-8"
     inkscape:window-y="-8"
     inkscape:window-maximized="1"
     inkscape:current-layer="layer1" /><defs
     id="defs2"><inkscape:path-effect
       effect="bend_path"
       id="path-effect675"
       is_visible="true"
       lpeversion="1"
       bendpath="m -319.54805,624.92632 c 433.75232,-170.78759 803.43976,-133.1864 1143.74147,0"
       prop_scale="1"
       scale_y_rel="false"
       vertical="false"
       hide_knot="false"
       bendpath-nodetypes="cc" /><inkscape:path-effect
       effect="perspective-envelope"
       up_left_point="-259.31933,557.39115"
       up_right_point="772.73906,557.39115"
       down_left_point="-344.94336,692.46148"
       down_right_point="841.7207,692.46148"
       id="path-effect673"
       is_visible="true"
       lpeversion="1"
       deform_type="perspective"
       horizontal_mirror="false"
       vertical_mirror="false"
       overflow_perspective="false" /><inkscape:path-effect
       effect="slice"
       start_point="248.38867,557.39115"
       end_point="248.38867,692.46148"
       center_point="248.38867,624.92631"
       id="path-effect639"
       is_visible="true"
       lpeversion="1.2"
       lpesatellites=""
       allow_transforms="true" /><inkscape:path-effect
       effect="rough_hatches"
       id="path-effect637"
       is_visible="true"
       lpeversion="1.2"
       direction="248.38867,619.92631 , 296.66602,0"
       dist_rdm="75;-294746200"
       growth="0"
       do_bend="true"
       bender="248.38867,624.92631 , 5,0"
       bottom_edge_variation="13.507033;1"
       top_edge_variation="13.507033;1"
       bottom_tgt_variation="0;1"
       top_tgt_variation="0;1"
       scale_bf="1"
       scale_bb="1"
       scale_tf="1"
       scale_tb="1"
       top_smth_variation="0;1"
       bottom_smth_variation="0;1"
       fat_output="true"
       stroke_width_top="1"
       stroke_width_bottom="1"
       front_thickness="1"
       back_thickness="0.25" /><inkscape:path-effect
       effect="perspective-envelope"
       up_left_point="-221.55157,487.82622"
       up_right_point="722.49273,498.465"
       down_left_point="-345.2295,630.60601"
       down_right_point="834.35242,642.53431"
       id="path-effect588"
       is_visible="true"
       lpeversion="1"
       deform_type="perspective"
       horizontal_mirror="false"
       vertical_mirror="false"
       overflow_perspective="false" /><rect
       x="1123.8427"
       y="693.66369"
       width="266.17327"
       height="83.347187"
       id="rect463" /><rect
       x="-341.07706"
       y="544.70514"
       width="1175.5034"
       height="1155.5894"
       id="rect2583" /><rect
       x="-341.07706"
       y="544.70514"
       width="1175.5034"
       height="1155.5894"
       id="rect2667" /><rect
       x="-341.07706"
       y="544.70514"
       width="1801.6598"
       height="1188.679"
       id="rect2679" /><rect
       x="-341.07706"
       y="544.70514"
       width="1801.6598"
       height="1188.679"
       id="rect2691" /><rect
       x="-341.07706"
       y="544.70514"
       width="1801.6598"
       height="1188.679"
       id="rect2703" /><rect
       x="-341.07706"
       y="544.70514"
       width="2272.1602"
       height="639.58735"
       id="rect2721" /></defs><g
     inkscape:label="Layer 1"
     inkscape:groupmode="layer"
     id="layer1"
     transform="translate(64.608448,1.5056447)"><rect
       style="display:inline;fill:#1e00ff;fill-opacity:1;stroke:#000000;stroke-width:1.22815;stroke-linecap:round;stroke-linejoin:round;stroke-dasharray:none;stroke-opacity:1;paint-order:normal"
       id="rect9576"
       width="54.603817"
       height="58.960171"
       x="64.742874"
       y="113.40447"
       transform="matrix(0.76100639,-0.64874438,0.66700657,0.74505183,0,0)"
       inkscape:label="Blue Rectangle"
       inkscape:export-filename="..\src\com\fishtankapps\bookitbaby\images\phil-in-the-blank-blue-square.png"
       inkscape:export-xdpi="96"
       inkscape:export-ydpi="96" /><path
       sodipodi:type="star"
       style="display:inline;fill:#fff200;fill-opacity:1;stroke:#000000;stroke-width:16.5383;stroke-linecap:round;stroke-linejoin:round;stroke-dasharray:none;stroke-opacity:1;paint-order:normal"
       id="path9522"
       inkscape:flatsided="true"
       sodipodi:sides="3"
       sodipodi:cx="-1201.9626"
       sodipodi:cy="-59.503098"
       sodipodi:r1="573.56653"
       sodipodi:r2="286.78326"
       sodipodi:arg1="0.85391818"
       sodipodi:arg2="1.9011157"
       inkscape:rounded="0.1"
       inkscape:randomized="0"
       d="m -825.10969,372.88609 c -74.892,65.27285 -920.65751,-224.72474 -939.73941,-322.219544 -19.082,-97.494802 654.946,-684.950426 748.92,-652.728476 93.97394,32.22196 265.71142,909.67517 190.81941,974.94802 z"
       transform="matrix(0.04512004,-0.05673346,0.05673346,0.04512004,109.43163,-13.539615)"
       inkscape:transform-center-x="-14.13458"
       inkscape:transform-center-y="-1.7373551"
       inkscape:label="Yellow Triangle"
       inkscape:export-filename="..\src\com\fishtankapps\bookitbaby\images\phil-in-the-blank-yellow-triangle.png"
       inkscape:export-xdpi="96"
       inkscape:export-ydpi="96" /><ellipse
       style="display:inline;fill:#f5000e;fill-opacity:1;stroke:#000000;stroke-width:1.46897;stroke-linecap:round;stroke-linejoin:round;stroke-dasharray:none;stroke-opacity:1;paint-order:normal"
       id="path9468"
       cx="109.99686"
       cy="30.059423"
       rx="53.898869"
       ry="26.949434"
       transform="rotate(2.7485298)"
       inkscape:label="Red Oval"
       inkscape:export-filename="..\src\com\fishtankapps\bookitbaby\images\phil-in-the-blank-red-oval.png"
       inkscape:export-xdpi="96"
       inkscape:export-ydpi="96" /><g
       aria-label="Phil in the Blank!  "
       transform="matrix(0.14950222,6.9159248e-4,-6.9159248e-4,0.14950222,78.092571,-48.147588)"
       id="text2719"
       style="font-size:144px;line-height:1.25;white-space:pre;shape-inside:url(#rect2721);display:inline;fill:#ffffff;stroke:#000000;stroke-width:15.1181;stroke-linecap:round;stroke-linejoin:round;paint-order:stroke markers fill"
       inkscape:label="Text"
       inkscape:export-filename="..\src\com\fishtankapps\bookitbaby\images\phil-in-the-blank-text.png"
       inkscape:export-xdpi="96"
       inkscape:export-ydpi="96"><path
         d="m -204.41453,551.9222 c -2.87223,13.59666 -8.2551,25.80516 -16.14402,36.54586 -7.96764,10.85322 -16.82285,18.03809 -26.68213,21.4754 -5.97533,2.08321 -10.72534,2.49755 -14.26611,1.21594 -3.24749,-1.27178 -4.53812,-3.55756 -3.85716,-6.86267 0.0278,-0.13496 0.0556,-0.26992 0.0835,-0.40488 0.4665,-2.26187 1.39608,-4.38237 2.78912,-6.3615 1.389,-1.97339 2.84628,-3.22595 4.36754,-3.76099 0.71732,-0.25229 2.56197,-0.0647 5.52888,0.57559 3.01975,0.62777 5.90837,0.46926 8.66871,-0.47858 5.77651,-1.98354 11.12101,-6.47678 16.08539,-13.44063 4.91116,-6.88919 8.27759,-14.60001 10.09719,-23.10661 1.84359,-8.61878 0.54814,-14.58652 -3.9507,-17.95639 -4.45043,-3.33362 -11.26571,-3.52277 -20.40489,-0.49452 -2.65137,0.87853 -6.52916,2.50112 -11.58368,4.87953 -2.62356,13.87715 -4.71385,24.65839 -6.47932,32.63964 -3.88102,17.54513 -7.4993,33.75764 -10.94865,48.57253 -4.23227,18.1183 -8.78603,34.8072 -13.73319,49.89731 -1.79428,5.48337 -4.1669,8.81944 -7.14494,9.98367 -4.55644,1.7813 -6.11954,-1.70534 -4.56648,-10.45116 -0.17243,0.97102 3.33069,-13.23415 11.30766,-41.60556 2.65436,-9.48526 5.43634,-21.2834 8.47034,-35.36489 3.97597,-18.4534 7.06707,-32.98499 9.32598,-44.98559 -3.32343,2.77635 -7.24496,6.82582 -11.72237,12.16546 -3.39983,4.06387 -5.85111,6.38555 -7.3873,6.9441 -1.69875,0.61766 -2.98809,0.39577 -3.86845,-0.66712 -0.91909,-1.04467 -1.13718,-2.57129 -0.65118,-4.57746 0.5311,-2.19237 3.01337,-5.94264 7.46464,-11.17452 12.47875,-14.61649 26.9744,-24.56875 43.32789,-29.92698 13.71623,-4.49412 23.82563,-4.29352 30.23145,0.42966 6.51761,4.75021 8.35097,13.47313 5.64232,26.29536 z"
         style="font-family:'Kristen ITC';-inkscape-font-specification:'Kristen ITC'"
         id="path557" /><path
         d="m -134.95699,569.72135 c -2.57074,15.03233 -5.74298,27.71627 -9.59576,37.8665 -3.7181,9.84139 -7.2652,15.33536 -10.74468,16.36228 -1.98167,0.58487 -3.53369,0.28304 -4.6572,-0.90785 -1.12882,-1.1305 -1.54215,-2.68655 -1.2362,-4.66699 1.77152,-5.18033 3.57003,-10.35898 5.39582,-15.53573 3.5811,-10.18324 6.21482,-20.01716 7.87255,-29.53071 2.43152,-13.95432 2.96693,-23.44403 1.44253,-28.83159 -1.54626,-5.46751 -5.38853,-7.34691 -11.54426,-5.61583 -3.24415,0.9123 -6.73633,2.75564 -10.4627,5.54067 -3.73959,2.7949 -6.78612,5.78632 -9.14071,8.96617 -2.93611,4.02657 -5.0788,9.49591 -6.40913,16.44708 -0.31652,1.65384 -0.63092,3.30762 -0.94322,4.96132 -2.53139,13.40456 -4.49302,26.60836 -5.90421,39.58058 -1.3921,13.21841 -1.94035,19.47898 -1.79384,18.55571 -0.91043,5.73737 -3.36997,9.27443 -7.39742,10.59162 -2.32036,0.75888 -3.80991,0.33303 -4.4679,-1.28325 -0.56983,-1.35928 -0.74798,-4.42088 -0.51408,-9.14409 0.69874,-12.71573 2.90109,-29.76248 6.8272,-50.44323 3.32365,-17.50728 8.80112,-37.43449 16.60452,-59.32992 1.68433,-4.65282 3.00542,-7.73723 3.93237,-9.25666 1.39529,-2.2149 3.18622,-3.632 5.36912,-4.25366 1.59535,-0.45433 2.79726,-0.19284 3.60512,0.78312 0.8103,0.97888 0.99176,2.48398 0.54848,4.5201 0.0202,-0.0927 -2.8403,8.05902 -8.3077,24.86607 6.80028,-7.57941 14.24774,-12.4611 22.28019,-14.68219 19.48312,-5.38737 25.25616,9.26754 19.24111,44.44048 z"
         style="font-family:'Kristen ITC';-inkscape-font-specification:'Kristen ITC'"
         id="path559" /><path
         d="m -85.806614,492.25109 c -1.241822,6.39991 -4.832503,10.31184 -10.779999,11.72432 -2.397353,0.56935 -4.255817,0.16466 -5.577277,-1.21707 -1.27387,-1.38684 -1.66581,-3.32551 -1.17052,-5.81246 0.53745,-2.69865 1.88794,-5.1959 4.054415,-7.49 2.158067,-2.28519 4.536827,-3.72689 7.13048,-4.3285 2.423972,-0.56226 4.21953,-0.19523 5.38466,1.09691 1.169807,1.29733 1.486691,3.30335 0.958241,6.0268 z m -7.712213,26.928 c -5.356551,29.40512 -9.832643,52.22736 -14.027673,68.06746 -1.70144,6.4744 -3.15411,10.94531 -4.40279,13.39338 -1.6224,3.24283 -3.75424,5.22286 -6.40629,5.93408 -1.76776,0.47408 -3.16394,0.15667 -4.18951,-0.95389 -1.01455,-1.16289 -1.37108,-2.76518 -1.06563,-4.80498 -0.0412,0.27521 0.58997,-1.71633 1.91202,-5.9496 1.52561,-4.77738 3.00053,-10.08691 4.43368,-15.91453 1.96403,-8.15944 3.75686,-17.03298 5.3919,-26.57619 0.70401,-4.10902 1.40968,-8.39738 2.11939,-12.86124 0.70353,-4.42507 1.09828,-6.81738 1.16844,-7.20469 1.17568,-6.49018 2.50772,-11.08797 3.96667,-13.83172 1.5391,-2.9765 3.72977,-4.80289 6.565599,-5.48284 3.960991,-0.94972 5.458032,1.11329 4.534194,6.18476 z"
         style="font-family:'Kristen ITC';-inkscape-font-specification:'Kristen ITC'"
         id="path561" /><path
         d="m -68.635805,595.941 c -0.497603,3.74976 -1.032032,6.37354 -1.613569,7.86052 -1.07849,2.63724 -2.909525,4.26691 -5.497959,4.88897 -4.226364,1.01569 -6.182468,-2.67723 -5.77982,-11.03927 0.648724,-13.73988 2.698997,-32.4912 6.40137,-55.32491 3.922745,-24.19284 7.021833,-39.20788 8.522972,-44.39007 1.730393,-5.88055 4.434087,-9.18908 8.084791,-9.96028 4.304666,-0.90935 5.948302,1.3521 4.978691,6.78144 -0.274563,1.53741 -1.426494,6.66819 -3.593572,16.6157 -2.160969,9.9094 -3.915037,19.19894 -5.282066,27.80509 -1.212527,7.63348 -2.426762,17.68448 -3.559527,30.15837 -1.162829,12.83665 -1.996538,21.59487 -2.661311,26.60444 z"
         style="font-family:'Kristen ITC';-inkscape-font-specification:'Kristen ITC'"
         id="path563" /><path
         d="m 26.176375,470.78399 c -0.971773,6.18318 -4.481785,9.76528 -10.529679,10.74435 -2.438395,0.39474 -4.368383,-0.1264 -5.7923254,-1.56619 -1.3752601,-1.44165 -1.8698697,-3.36323 -1.4786295,-5.76225 0.4245475,-2.60325 1.6940379,-4.95587 3.8120919,-7.05628 2.10976,-2.09217 4.486458,-3.345 7.124623,-3.76064 2.46545,-0.38844 4.329437,0.0913 5.589724,1.43503 1.265242,1.34901 1.687658,3.33518 1.274195,5.96598 z m -6.690162,25.83041 c -4.198602,28.34879 -7.966936,50.44867 -11.6880962,65.56745 -1.5126047,6.20147 -2.8486539,10.46529 -4.042993,12.76354 -0.4727318,0.9294 -0.9981191,1.74063 -1.5762966,2.43349 -1.3188684,1.57958 -2.91234038,2.54379 -4.7841254,2.89144 -1.7949697,0.33337 -3.2361601,-0.0783 -4.3250517,-1.23656 -1.0794174,-1.20855 -1.5000126,-2.79765 -1.2578454,-4.76613 -0.032667,0.26559 0.545862,-1.63196 1.7514678,-5.66871 1.3949435,-4.55281 2.7160159,-9.63131 3.9692662,-15.21963 0.049159,-0.22489 0.098142,-0.45037 0.1469489,-0.67642 0,0 3e-7,0 3e-7,0 1.6495543,-7.64238 3.09932284,-15.95805 4.3554908,-24.90335 0.5568643,-3.96548 1.1053534,-8.10741 1.6469045,-12.42067 0.536872,-4.27601 0.8391175,-6.58731 0.8945898,-6.96105 0.9297135,-6.26381 2.0937857,-10.66619 3.471825,-13.25071 1.4494827,-2.80559 3.61912,-4.44347 6.503385,-4.9152 4.027438,-0.65871 5.660146,1.46317 4.93453,6.36251 z"
         style="font-family:'Kristen ITC';-inkscape-font-specification:'Kristen ITC'"
         id="path565" /><path
         d="m 100.9126,516.97282 c -1.270817,11.50797 -4.2874,23.38748 -8.976252,35.70845 -2.947508,7.79769 -5.99838,11.93708 -9.210129,12.33526 -1.718788,0.21308 -3.12699,-0.20533 -4.226307,-1.25651 -1.091311,-1.10091 -1.549727,-2.51011 -1.372094,-4.2272 0.04834,-0.4673 1.594983,-5.30812 4.716069,-14.39024 3.073685,-8.97869 5.099234,-17.58631 6.04311,-25.86157 2.085794,-18.28684 -2.082988,-26.65818 -12.891425,-25.32659 -6.140771,0.75653 -11.474024,3.76528 -15.965681,9.03752 -4.690756,5.48573 -7.550954,12.37675 -8.595125,20.71524 -0.589818,4.71016 -0.803343,11.27469 -0.625153,19.7724 0.232371,8.58648 0.146346,14.84605 -0.278546,18.68904 -1.00001,9.04474 -3.688222,13.95215 -8.111709,14.63537 -2.256561,0.34854 -3.74888,0.005 -4.478616,-1.03794 -0.57652,-0.80109 -0.936277,-2.57813 -1.074553,-5.31863 0.331615,-3.38912 0.789516,-12.37864 1.543907,-27.40924 0.683192,-20.02923 1.674721,-33.97624 2.785664,-42.01382 1.903774,-13.77367 5.471169,-20.88906 10.592196,-21.59688 1.663372,-0.2299 3.011716,0.10556 4.043746,1.00504 1.040755,0.8574 1.463981,1.97507 1.272096,3.35323 -0.136882,0.98311 -0.658452,2.8686 -1.562234,5.6834 -0.907858,2.82752 -1.489723,5.20558 -1.748857,7.12112 -0.07125,0.52665 -0.142344,1.0533 -0.213293,1.57995 7.695904,-10.03031 16.269587,-15.556 25.593241,-16.67502 8.582377,-1.03006 14.860384,1.4637 18.812219,7.44092 4.067516,6.02603 5.334816,15.2948 3.927726,28.0367 z"
         style="font-family:'Kristen ITC';-inkscape-font-specification:'Kristen ITC'"
         id="path567" /><path
         d="m 215.38305,491.86241 c -0.12359,1.59047 -0.72174,2.97077 -1.79287,4.14078 -1.07008,1.12696 -2.27517,1.71125 -3.61706,1.75197 -0.67675,0.0205 -3.16231,-0.79802 -7.49735,-2.42653 -4.27014,-1.62247 -8.53063,-2.33709 -12.76975,-2.1489 -1.33864,0.0594 -2.75235,0.21475 -4.24051,0.4667 -2.32037,7.56156 -3.7421,14.58013 -4.28622,21.00757 -0.71078,8.39601 0.0962,14.89021 2.37839,19.38312 2.3069,4.54162 5.83326,6.71107 10.58752,6.50781 1.45045,-0.062 3.38804,-0.6423 5.82025,-1.7336 2.47513,-1.14026 4.238,-1.72393 5.27829,-1.75997 3.62773,-0.12568 5.26462,2.16917 4.93194,6.88909 -0.21772,3.08899 -1.8979,5.65379 -5.02869,7.70233 -3.14454,2.05754 -7.30294,3.18935 -12.48778,3.41903 -19.10036,0.84614 -27.82139,-12.76324 -25.3504,-40.48367 0.50171,-5.62836 1.70066,-11.79541 3.61201,-18.4637 -1.24709,0.25126 -4.03708,0.94242 -8.24782,2.07343 -2.77791,0.7254 -4.80835,1.13618 -6.10444,1.22388 -4.76961,0.32271 -6.97678,-1.38292 -6.59995,-5.14295 0.50945,-5.08325 9.01585,-9.01976 25.5754,-11.4205 4.33394,-10.79394 8.97351,-16.21059 13.83276,-16.42336 1.50207,-0.0658 2.73483,0.41813 3.69701,1.45132 0.96835,0.9924 1.38376,2.24794 1.2481,3.76726 -0.1011,1.13226 -0.56242,2.58541 -1.38231,4.36569 -0.81887,1.74254 -1.63957,3.51433 -2.46193,5.31552 17.18996,-0.17119 25.45161,3.50882 24.90541,10.53768 z"
         style="font-family:'Kristen ITC';-inkscape-font-specification:'Kristen ITC'"
         id="path569" /><path
         d="m 292.09482,517.07637 c -0.69457,13.80733 -2.52427,25.14337 -5.43424,33.76885 -0.10208,0.30478 -0.20467,0.60403 -0.30777,0.89776 -2.73049,7.77905 -5.81283,11.6801 -9.2831,11.6169 -2.05114,-0.0373 -3.74374,-0.79607 -5.081,-2.27728 -1.33604,-1.42478 -1.95759,-3.0415 -1.86024,-4.85112 1.29528,-4.44258 2.60287,-8.88332 3.92279,-13.32216 2.58508,-8.73429 4.13077,-17.44622 4.60347,-26.14888 0.6928,-12.75458 -0.17442,-21.81642 -2.64505,-27.44268 -2.51395,-5.72652 -6.98405,-8.61598 -13.39733,-8.65936 -3.38213,-0.0229 -6.8887,0.78465 -10.50983,2.42948 -3.63381,1.65058 -6.48853,3.67815 -8.56576,6.07337 -2.58202,3.04709 -4.07978,7.68291 -4.5065,13.95528 -0.10151,1.49205 -0.20264,2.98411 -0.30341,4.47619 -0.81685,12.09524 -1.16776,24.12224 -1.07112,36.06669 0.14815,12.18354 0.24873,17.96908 0.2997,17.13408 -0.31665,5.19058 -2.57886,7.82206 -6.77478,7.89009 -2.41978,0.0392 -4.07694,-0.80002 -4.97297,-2.52285 -0.77243,-1.4557 -1.3141,-4.40373 -1.62246,-8.81367 -0.75661,-11.872 -0.50764,-27.35717 0.81724,-45.96095 1.12091,-15.73921 4.03709,-33.21218 8.84507,-52.1024 1.05075,-4.00859 1.95586,-6.60957 2.70799,-7.82307 1.14235,-1.75331 2.8573,-2.63924 5.14291,-2.65632 1.67011,-0.0125 3.03492,0.55856 4.09289,1.71262 1.06095,1.1573 1.5245,2.65405 1.39338,4.49269 0.006,-0.0837 -1.65798,7.00519 -4.91529,21.62272 6.20788,-5.40816 13.5235,-8.08106 21.8994,-8.01362 11.20752,0.0902 19.07333,5.12793 23.47127,15.21279 3.46081,7.93684 4.77366,18.95364 4.05474,33.24485 z"
         style="font-family:'Kristen ITC';-inkscape-font-specification:'Kristen ITC'"
         id="path571" /><path
         d="m 376.24165,502.108 c -0.10755,4.79238 -1.80495,8.22711 -5.07733,10.29265 -1.47016,0.91763 -6.03444,1.85584 -13.74968,2.93211 -10.27346,1.45852 -18.97564,2.02854 -26.17301,1.62126 -3.28352,-0.1858 -7.22219,-0.63523 -11.83713,-1.33249 -0.76558,18.22697 5.40865,27.83653 18.33966,28.6439 3.57699,0.22334 6.84921,-0.68817 9.82673,-2.73444 1.49025,-0.99973 4.15413,-3.46182 8.05072,-7.37426 1.39871,-1.41755 2.84318,-2.06701 4.33031,-1.95124 1.89287,0.14735 3.49377,1.05987 4.79918,2.73846 1.35608,1.63839 2.00004,3.59686 1.93511,5.87651 -0.0539,1.89117 -0.7611,3.5842 -2.11768,5.0802 -8.13472,8.88283 -17.4004,13.02057 -27.89181,12.36707 -21.55721,-1.34279 -31.96703,-15.62654 -30.71922,-42.65724 0.61591,-13.34217 4.47654,-24.4325 11.7044,-33.37236 8.04544,-9.92632 17.7504,-14.49071 29.01234,-13.7548 8.78569,0.5741 15.96663,3.98422 21.49852,10.21345 5.60218,6.30836 8.2778,14.10319 8.06889,23.41122 z m -13.33184,-0.27789 c -0.0939,-6.35821 -1.57678,-11.43765 -4.46347,-15.27677 -2.81855,-3.80404 -6.45226,-5.85206 -10.88658,-6.14692 -5.7645,-0.38331 -10.92816,1.35904 -15.46585,5.23193 -4.71674,3.94703 -8.34202,9.77875 -10.8894,17.55158 3.16462,0.52529 6.53603,0.88632 10.11682,1.08737 8.69203,0.48802 19.19029,-0.37102 31.58848,-2.44719 z"
         style="font-family:'Kristen ITC';-inkscape-font-specification:'Kristen ITC'"
         id="path573" /><path
         d="m 509.88842,553.60546 c 0.20762,13.2166 -4.89104,23.47497 -15.07038,30.76241 -8.59817,6.1266 -18.74041,8.23932 -30.51109,6.38794 -5.84649,-0.91958 -12.50006,-3.20009 -20.01624,-6.79677 -0.88164,5.10427 -3.16829,7.40756 -6.8447,6.89992 -2.77138,-0.38268 -4.67988,-2.02362 -5.73035,-4.92258 -1.00163,-2.71517 -1.45946,-7.05394 -1.37792,-12.96849 0.16762,-12.15694 1.86628,-38.10838 4.7521,-75.8529 0.17465,-2.5033 0.34857,-5.00667 0.52178,-7.51011 0.64145,-7.96864 1.34033,-12.98591 2.11994,-15.1709 1.11722,-3.06371 3.24809,-4.38915 6.394,-3.97612 3.97774,0.52223 5.98996,3.37859 6.04063,8.58577 -0.0147,-1.51259 -0.69979,6.19324 -2.14152,23.58396 -1.63259,19.41006 -2.73389,40.9709 -3.43291,65.22086 7.7633,3.85558 14.66172,6.28349 20.75462,7.23561 9.06249,1.41616 16.45113,-0.24854 22.20952,-5.04142 5.46985,-4.62175 8.18991,-10.95653 8.09858,-18.99349 -0.17414,-15.32274 -9.81409,-24.59589 -29.0498,-27.51155 -0.66421,-0.10068 -1.68888,-0.23193 -3.06358,-0.39011 -1.33366,-0.15193 -2.35234,-0.27882 -3.06467,-0.38375 -4.08417,-0.60164 -6.13797,-2.87115 -6.15458,-6.81401 -0.012,-2.84191 1.10476,-4.5839 3.35931,-5.22981 1.32254,-0.40882 3.26721,-0.54233 5.82987,-0.39317 3.09489,0.1356 5.22748,0.1622 6.42107,0.0671 3.73868,-0.39507 6.72889,-2.14901 8.97052,-5.25963 2.26753,-3.12517 3.36226,-7.08329 3.26577,-11.85791 -0.13188,-6.52563 -2.86802,-11.93576 -8.23485,-16.23362 -5.32463,-4.30617 -12.89807,-7.16368 -22.70491,-8.4958 -6.71146,-0.91165 -13.96022,-0.28488 -21.71583,1.91422 -1.88155,0.62417 -3.78572,1.25028 -5.71286,1.87874 -2.23794,0.6363 -4.18926,0.86154 -5.85678,0.67144 -1.71115,-0.19506 -3.1126,-0.88812 -4.20584,-2.07978 -1.13443,-1.19367 -1.69932,-2.51195 -1.69275,-3.95541 0.0106,-2.32538 2.15619,-4.45164 6.44712,-6.3526 9.89263,-4.39867 21.75749,-5.7101 35.50043,-3.83302 12.74608,1.74092 22.92363,6.03642 30.4833,12.78385 7.52823,6.77411 11.39075,14.99005 11.64091,24.65643 0.2367,9.1455 -2.96663,16.41408 -9.51809,21.78282 7.16363,3.50266 12.78758,8.55607 16.85879,15.15458 4.1669,6.68933 6.30136,14.16072 6.43138,22.43729 z"
         style="font-family:'Kristen ITC';-inkscape-font-specification:'Kristen ITC'"
         id="path575" /><path
         d="m 542.89046,589.20952 c 0.0611,3.62859 -0.10442,6.08543 -0.48701,7.34503 -0.72893,2.21731 -2.3947,3.05048 -4.99536,2.505 -4.26187,-0.89389 -6.80914,-5.55958 -7.68893,-13.92898 -1.46742,-13.83659 -2.43674,-31.99691 -3.05799,-54.0111 -0.66855,-23.69041 -0.96212,-37.13946 -0.542,-42.32012 0.466,-5.38346 2.52416,-7.71675 6.1991,-7.01612 4.32024,0.82366 6.60103,3.86184 6.84177,9.12794 0.0579,1.26586 0.0658,6.59231 -0.0268,15.8122 -0.0968,9.40462 -0.0125,18.29529 0.25875,26.62677 0.24286,7.459 0.89339,17.19324 1.89563,29.6389 1.01588,12.5796 1.52372,21.52372 1.60283,26.22048 z"
         style="font-family:'Kristen ITC';-inkscape-font-specification:'Kristen ITC'"
         id="path577" /><path
         d="m 616.74615,561.15823 c 0.75219,13.80176 -0.33692,28.14757 -3.23494,43.12812 -1.48132,7.68961 -3.99771,11.10851 -7.50318,10.20077 -3.59944,-0.93208 -5.4754,-3.91177 -5.63463,-8.92524 -0.0361,-1.13784 -0.019,-1.96434 0.0522,-2.48215 -4.4417,1.82775 -9.08133,2.14942 -13.93284,0.96502 -8.58871,-2.09677 -15.3712,-6.60194 -20.39395,-13.53528 -4.81289,-6.69353 -7.42206,-14.94572 -7.81158,-24.68825 -0.009,-0.21483 -0.0161,-0.4304 -0.0225,-0.64669 -0.23661,-7.9703 1.16231,-14.16707 4.25522,-18.64991 0,-10e-6 0,-10e-6 0,-10e-6 0.78175,-1.13304 1.67111,-2.15542 2.66825,-3.06753 4.87854,-4.51247 11.5657,-5.80282 20.02902,-3.82846 7.36966,1.71923 13.73789,5.94481 19.05644,12.69147 -1.80893,-19.16989 -8.73529,-29.96163 -20.61817,-32.68717 -2.64092,-0.60573 -5.43572,-0.39773 -8.37992,0.62912 -2.91392,0.99408 -4.82422,1.39718 -5.73841,1.19561 -0.4816,-0.10619 -0.95027,-0.27739 -1.40611,-0.51355 -0.94347,-0.48865 -1.83197,-1.25541 -2.66645,-2.29968 -1.23439,-1.54474 -1.89291,-3.14054 -1.97345,-4.78868 -0.13356,-2.73298 1.6192,-4.84882 5.26988,-6.33085 0.79445,-0.32705 1.62429,-0.59451 2.48949,-0.80224 3.36079,-0.80689 7.25609,-0.71266 11.67642,0.29126 20.70252,4.70184 32.0943,22.49377 33.81927,54.14432 z m -12.45457,14.39027 c -0.56478,-12.83782 -6.10083,-20.46862 -16.58153,-22.951 -11.52017,-2.72858 -16.96005,2.2557 -16.53345,14.86033 0.4422,13.06542 6.41177,21.01407 17.91121,23.81771 5.00661,1.22065 8.85854,0.45533 11.56498,-2.31444 2.68303,-2.80016 3.9084,-7.28429 3.63879,-13.4126 z"
         style="font-family:'Kristen ITC';-inkscape-font-specification:'Kristen ITC'"
         id="path579" /><path
         d="m 696.89087,578.43338 c 1.01167,12.14487 0.23768,23.9543 -2.27766,35.42061 -1.57313,7.26946 -3.93114,10.44649 -7.0298,9.47785 -1.66174,-0.51945 -3.11969,-1.59221 -4.37662,-3.2172 -1.25712,-1.67564 -1.94077,-3.40882 -2.04938,-5.2004 -0.0295,-0.48756 0.71919,-5.07156 2.20272,-13.64569 1.45461,-8.47971 1.84883,-17.05558 1.16531,-25.73039 -1.51329,-19.20589 -7.57734,-30.1095 -17.95124,-33.06415 -5.93711,-1.69098 -10.60109,-0.59995 -13.98289,3.26 -3.53961,4.0133 -4.98881,10.26618 -4.41563,18.83885 0.32502,4.86125 1.3596,11.82089 3.0621,21.08654 1.7645,9.34171 2.72611,16.09746 2.93402,20.02639 0.49261,9.30935 -1.46881,13.37263 -5.7731,12.13683 -2.20427,-0.63286 -3.75247,-1.66807 -4.64562,-3.10957 -0.70295,-1.11586 -1.33863,-3.17605 -1.91441,-6.17278 -0.18833,-3.15728 -1.1939,-13.22868 -3.10442,-28.71825 -2.96717,-21.53576 -4.83461,-35.51934 -5.44699,-44.04431 -1.00965,-14.05535 0.87628,-20.32728 5.89082,-19.00459 1.61822,0.42684 3.04791,1.33818 4.28721,2.73478 1.23824,1.35417 1.91526,2.74138 2.03251,4.16021 0.0834,1.00929 -0.0158,2.85053 -0.30112,5.53211 -0.28692,2.69693 -0.35509,5.03395 -0.20314,7.00422 10e-6,1.1e-4 0.12476,1.62434 0.12477,1.62445 5.56595,-7.68359 12.8586,-10.24293 21.87115,-7.69311 8.28229,2.34321 15.04553,7.5995 20.23899,15.79233 5.30573,8.27437 8.5425,19.06111 9.66242,32.50527 z"
         style="font-family:'Kristen ITC';-inkscape-font-specification:'Kristen ITC'"
         id="path581" /><path
         d="m 771.77651,564.83644 c 0.3815,3.00088 -1.94261,5.20074 -6.96357,6.63192 -7.44976,1.6466 -14.9375,3.35275 -22.45803,5.1207 11.35066,15.42837 20.25283,29.24705 26.75128,41.07769 5.91596,10.81341 9.02986,18.43843 9.4221,22.6089 0.22436,2.38563 -0.20842,4.21612 -1.29362,5.48733 -1.04594,1.29147 -2.36427,1.64484 -3.95474,1.05998 -1.71975,-0.6324 -3.33747,-2.49826 -4.86222,-5.58823 -3.64179,-7.54245 -9.09686,-18.39131 -16.1544,-31.67595 -4.93687,-8.80231 -11.27492,-18.18384 -19.03704,-28.05185 -2.71642,-3.42292 -4.1299,-5.18726 -4.22473,-5.31477 -1.45448,-2.25726 -2.30804,-4.61862 -2.55912,-7.08389 -0.22988,-2.25711 0.89942,-3.75799 3.39418,-4.49898 3.50831,-0.68616 7.00685,-1.38366 10.49554,-2.09268 3.36138,-0.80053 8.60665,-2.45588 15.83149,-4.92941 4.31868,-1.49555 7.24857,-1.96499 8.78415,-1.43554 3.98964,1.37558 6.26726,4.26836 6.82873,8.68478 z m -45.50868,-28.92615 c -0.0108,-0.0922 -0.29648,1.23828 -0.86153,4.00347 -0.63575,3.25717 -1.02672,6.95553 -1.17909,11.1078 -0.23085,6.11301 0.0599,13.09708 0.84926,21.00657 0.45706,4.57963 1.38203,11.45651 2.75644,21.06672 1.42933,9.70771 2.33074,17.19563 2.74256,22.17682 0.59264,7.1683 0.46747,12.1562 -0.33382,14.87295 -0.87402,2.98649 -2.76824,3.98861 -5.67586,3.00937 -2.38817,-0.8043 -4.03167,-2.45999 -4.9339,-4.96637 -0.52868,-1.4635 -0.919,-3.94323 -1.17928,-7.42941 -0.20346,-2.72503 -0.43496,-6.04917 -0.70887,-10.06525 -0.26811,-3.93119 -0.46864,-6.63975 -0.57337,-7.91698 -0.43985,-5.36418 -1.22747,-12.49454 -2.39064,-21.20693 -1.15651,-8.6625 -1.89969,-14.41417 -2.22668,-17.76954 -1.25244,-12.85161 -1.30864,-22.34543 -0.0571,-28.75601 1.22452,-5.99499 3.47095,-8.45917 6.7697,-7.42563 1.62598,0.50944 3.14065,1.59923 4.54144,3.27158 1.44612,1.68986 2.26576,3.3641 2.46073,5.02083 0,1e-5 10e-6,1e-5 2e-5,1e-5 z"
         style="font-family:'Kristen ITC';-inkscape-font-specification:'Kristen ITC'"
         id="path583" /><path
         d="m 800.80026,564.61473 c 0.19713,1.38113 -0.0337,5.94435 -0.73555,13.7303 -1.13298,11.97146 -1.00842,25.73654 0.27889,41.4857 0.53955,7.18328 0.7488,11.41215 0.66845,12.50433 -0.27495,2.71189 -1.60428,3.61692 -3.98018,2.71743 -2.42014,-0.91624 -4.30326,-3.34959 -5.66155,-7.28742 -1.24346,-3.66975 -2.28759,-9.45286 -3.175,-17.3074 -1.53979,-13.62886 -1.27684,-28.15766 0.77625,-43.44061 0.98153,-7.46649 3.29768,-10.50459 7.00333,-9.16173 2.71206,0.9828 4.32206,3.23325 4.82536,6.7594 z m 7.453,96.77201 c 0.29319,2.97109 -0.13378,5.18001 -1.27362,6.61863 -1.14975,1.38647 -2.73339,1.6871 -4.75098,0.90335 -2.018,-0.78392 -3.82386,-2.42882 -5.423,-4.93065 -1.55061,-2.47649 -2.4628,-5.16472 -2.73612,-8.06252 -0.25598,-2.71397 0.20992,-4.70565 1.4041,-5.9813 1.18982,-1.27099 2.80867,-1.51495 4.85597,-0.73016 2.04697,0.78467 3.7989,2.29407 5.252,4.53036 1.50049,2.26003 2.39116,4.80983 2.67165,7.65229 z"
         style="font-family:'Kristen ITC';-inkscape-font-specification:'Kristen ITC'"
         id="path585" /></g><g
       id="g521"
       inkscape:label="Temp Phil"
       transform="translate(236.83046,26.889484)"
       style="display:none"
       inkscape:export-filename="..\src\com\fishtankapps\bookitbaby\images\phil-in-the-blank-phil.png"
       inkscape:export-xdpi="96"
       inkscape:export-ydpi="96"><path
         style="fill:#e8c573;stroke-width:0.264583"
         d="m -126.66006,45.745251 c -0.12587,-0.224917 -0.96751,-0.581255 -1.8703,-0.791861 -5.54491,-1.29354 -9.73376,-6.24201 -10.50429,-12.409194 -0.11708,-0.937082 -0.4442,-1.921288 -0.82515,-2.482646 -1.24134,-1.829228 -0.41936,-5.164483 1.17035,-4.748764 0.38164,0.0998 0.66144,-0.19178 1.23472,-1.286738 0.40769,-0.778681 1.41174,-2.128309 2.23122,-2.999174 l 1.48997,-1.583392 1.19062,0.24659 c 0.65484,0.135624 2.49453,0.330827 4.08819,0.433784 2.88349,0.186286 2.91791,0.196554 7.08498,2.11345 2.34726,1.079762 4.73646,1.998509 5.43681,2.090674 2.54073,0.334359 2.73878,0.414022 3.01759,1.213841 l 0.26731,0.766803 0.67749,-0.532912 c 0.59441,-0.467563 0.74539,-0.488282 1.2312,-0.168958 1.40085,0.920765 1.65654,3.321282 0.4948,4.645228 -0.3962,0.451526 -0.93199,0.820957 -1.19062,0.820957 -0.34023,0 -0.47025,0.207771 -0.47025,0.751426 0,1.2648 -1.00557,4.768564 -1.77351,6.179508 -1.09846,2.018245 -3.76993,4.753743 -5.5897,5.723668 -0.86863,0.462974 -2.42475,1.03269 -3.45806,1.266042 -1.22521,0.276688 -1.87873,0.552337 -1.87873,0.792438 0,0.523801 -1.75822,0.488913 -2.05464,-0.04077 z m 4.4415,-5.570365 c 2.12353,-0.630619 5.28606,-2.816878 5.28606,-3.654254 0,-0.672133 -0.89544,-0.4873 -1.69812,0.350519 -0.40634,0.424121 -1.52994,1.163558 -2.4969,1.643193 -1.5791,0.783271 -1.99563,0.873129 -4.09091,0.882516 -2.04162,0.0092 -2.36886,-0.05378 -2.62169,-0.504127 -0.58228,-1.037189 -2.8283,-2.789479 -3.57832,-2.791722 -0.6557,-0.002 -0.31052,0.734872 0.66146,1.411992 0.5457,0.380158 1.33115,1.118834 1.74545,1.641499 0.41429,0.522668 1.0096,1.053711 1.32291,1.1801 0.94093,0.379565 3.94995,0.291708 5.47006,-0.159716 z m -2.76949,-8.066668 c 0.27266,-0.441171 -0.34057,-0.947078 -0.70557,-0.582083 -0.30531,0.305309 -0.11422,0.86972 0.29445,0.86972 0.12834,0 0.31335,-0.129436 0.41112,-0.287637 z m 5.19044,-6.235662 c 0.60039,-0.543344 0.61511,-1.095213 0.046,-1.724096 -0.54455,-0.601724 -1.3539,-0.620434 -1.98868,-0.04597 -0.60039,0.543344 -0.6151,1.095213 -0.046,1.724096 0.54455,0.601724 1.35391,0.620434 1.98868,0.04597 z m -8.46666,-0.264583 c 0.60038,-0.543344 0.6151,-1.095213 0.046,-1.724097 -0.54335,-0.600388 -1.09522,-0.615104 -1.7241,-0.04597 -0.60039,0.543345 -0.6151,1.095213 -0.046,1.724097 0.54334,0.600389 1.09521,0.615104 1.7241,0.04597 z m -32.22635,19.015559 c -0.47551,-0.594162 -0.62749,-0.650645 -0.97491,-0.362318 -0.22636,0.18787 -0.8063,0.303691 -1.28875,0.257381 -0.81414,-0.07815 -0.88332,-0.159485 -0.9626,-1.131707 -0.0563,-0.690732 0.11278,-1.444353 0.49649,-2.21266 0.59309,-1.187543 0.46681,-1.619007 -0.47722,-1.630572 -0.48266,-0.0059 -0.43234,-3.482015 0.0677,-4.678854 l 0.39846,-0.953641 1.73138,0.138979 c 1.60894,0.12915 1.76067,0.09428 2.14551,-0.49307 0.46151,-0.704349 1.08072,-0.785952 2.38501,-0.314313 1.01739,0.367891 1.00782,0.325596 0.34701,1.534348 -0.88007,1.609834 -1.33471,2.651216 -1.48457,3.400475 l -0.1453,0.726509 6.55017,1.723446 c 6.00808,1.580811 6.55376,1.772084 6.59347,2.311127 0.0238,0.323226 -0.0985,0.78163 -0.27186,1.018678 -0.28573,0.390771 -0.85236,0.289338 -6.07077,-1.086726 -3.16559,-0.834747 -5.92726,-1.583584 -6.13703,-1.664081 -0.29632,-0.11371 -0.34249,0.0087 -0.20697,0.548635 0.18605,0.741257 -0.42367,2.596269 -1.06373,3.236328 -0.5341,0.534101 -0.9923,0.43076 -1.63152,-0.367964 z m 56.19197,-2.27724 c -0.25466,-0.193315 -0.46302,-0.593508 -0.46302,-0.889317 0,-0.295812 0.20836,-0.618866 0.46302,-0.7179 0.57213,-0.222493 6.27647,-2.390672 7.284361,-2.768734 0.711821,-0.267007 0.721984,-0.297318 0.310322,-0.925594 -0.58637,-0.894912 -0.412319,-1.84811 0.35738,-1.957223 0.335434,-0.04755 0.774306,0.05001 0.975275,0.216798 0.26374,0.218885 0.512506,0.224525 0.894155,0.02027 0.658664,-0.352506 1.88632,0.05852 1.88632,0.631547 0,0.21911 0.292772,0.471864 0.650605,0.561674 1.045258,0.262343 1.321401,0.770596 0.930897,1.713354 -0.251492,0.607153 -0.259517,0.884171 -0.0322,1.111488 0.478213,0.478213 0.376883,2.037202 -0.145436,2.237637 -0.626848,0.240543 -3.788003,-0.631306 -4.43778,-1.223944 -0.527198,-0.480838 -0.611949,-0.462153 -4.235627,0.933799 -2.033712,0.783453 -3.760122,1.42067 -3.836462,1.416042 -0.0763,-0.0046 -0.34715,-0.166581 -0.60181,-0.359899 z"
         id="path494" /><path
         style="fill:#fee404;stroke-width:0.264583"
         d="m -126.37985,61.769905 c -1.80135,-0.806487 -2.83526,-3.388757 -2.33318,-5.827268 0.32686,-1.587437 1.06091,-3.173865 1.46857,-3.173865 0.3379,0 1.31612,0.983276 1.31612,1.322917 0,0.434543 1.37494,0.299521 1.91355,-0.187918 0.43159,-0.390581 0.53401,-0.399632 0.74851,-0.06615 0.4655,0.723736 0.814,2.427116 0.74822,3.657084 -0.0812,1.519063 -1.21113,3.944602 -1.94385,4.172868 -0.29721,0.09259 -0.60263,0.264393 -0.67872,0.381781 -0.0761,0.117388 -0.63373,-0.0084 -1.23922,-0.279453 z"
         id="path492" /><path
         style="fill:#3e47cb;stroke-width:0.264583"
         d="m -136.31757,83.593331 c -0.85736,-0.75451 -3.02693,-1.455809 -4.50376,-1.455809 -0.7266,0 -0.99801,-0.09936 -0.90345,-0.330729 0.0744,-0.181901 1.88489,-4.497917 4.02342,-9.591146 2.13854,-5.093229 3.94865,-9.409245 4.02248,-9.591146 0.10325,-0.254383 1.99052,-0.330729 8.17573,-0.330729 4.42281,0 8.04148,0.03972 8.04148,0.08826 0,0.07326 4.98651,16.76682 5.4467,18.234136 0.1185,0.377865 -0.0181,0.463021 -0.74307,0.463021 -1.44057,0 -3.9537,0.764368 -4.90913,1.493107 -0.48817,0.372348 -0.93514,0.629452 -0.99325,0.571336 -0.0581,-0.05811 -1.84211,-3.905861 -3.96444,-8.55055 -2.12233,-4.644692 -3.89243,-8.478536 -3.93355,-8.51966 -0.0411,-0.04112 -2.01641,4.032726 -4.38954,9.052999 -2.37312,5.020273 -4.38742,9.124005 -4.47622,9.119407 -0.0888,-0.0046 -0.49083,-0.298223 -0.8934,-0.652497 z m 21.73098,-59.040497 c -2.19584,-0.316786 -3.13198,-0.635946 -6.75859,-2.304227 -4.16037,-1.913813 -4.24213,-1.938497 -6.97612,-2.106201 -4.88364,-0.299564 -7.9565,-1.236273 -8.13863,-2.480921 -0.16869,-1.15281 2.76141,-2.253664 6.92067,-2.600128 2.08244,-0.173467 2.35305,-0.143116 2.69817,0.302618 0.37464,0.483872 0.39263,0.483735 0.77147,-0.0059 0.36142,-0.467089 0.55551,-0.481649 2.84427,-0.213374 1.35101,0.158357 3.05578,0.470221 3.78837,0.693031 1.46447,0.445407 2.61389,1.339246 2.40896,1.873306 -0.0907,0.236236 0.41657,0.47888 1.6357,0.782474 4.25727,1.060168 4.42328,1.137786 5.5657,2.602199 l 1.07519,1.378242 -1.23632,1.256771 c -0.67998,0.691251 -1.41939,1.24173 -1.64314,1.223314 -0.22375,-0.01842 -1.55382,-0.198958 -2.9557,-0.401204 z"
         id="path490" /><path
         style="fill:#0085be;stroke-width:0.264583"
         d="m -121.78629,25.826584 c -0.56913,-0.628883 -0.55442,-1.180752 0.046,-1.724096 0.63478,-0.574462 1.44413,-0.555752 1.98868,0.04597 0.56914,0.628883 0.55442,1.180752 -0.046,1.724096 -0.63477,0.574462 -1.44413,0.555752 -1.98868,-0.04597 z m -8.20208,-0.264583 c -0.56913,-0.628884 -0.55442,-1.180752 0.046,-1.724097 0.62888,-0.569132 1.18075,-0.554416 1.7241,0.04597 0.56913,0.628884 0.55441,1.180753 -0.046,1.724097 -0.62889,0.569132 -1.18076,0.554417 -1.7241,-0.04597 z"
         id="path488" /><path
         style="fill:#ec1c24;stroke-width:0.264583"
         d="m -143.9362,87.614281 c -3.58549,-1.017593 -4.1243,-3.382013 -1.08597,-4.7654 1.89511,-0.862862 5.77865,-0.820669 7.58361,0.08239 0.72714,0.363802 1.50105,0.98888 1.71979,1.389063 0.35391,0.647446 0.35391,0.807762 0,1.455208 -0.92086,1.684665 -5.30431,2.665508 -8.21743,1.838739 z m 1.52897,-3.819475 c -0.0608,-0.402183 -0.1122,-0.13593 -0.11418,0.591674 -0.002,0.727604 0.0478,1.056664 0.11057,0.731243 0.0628,-0.325422 0.0644,-0.920735 0.004,-1.322917 z m 1.05834,0 c -0.0608,-0.402183 -0.1122,-0.13593 -0.11419,0.591674 -0.002,0.727604 0.0478,1.056664 0.11058,0.731243 0.0628,-0.325422 0.0644,-0.920735 0.004,-1.322917 z m 2.96079,1.414764 c 0.22354,-0.269356 0.2312,-0.430668 0.0264,-0.557218 -0.15851,-0.09796 -0.22113,-0.389408 -0.13917,-0.647657 0.19412,-0.611625 -0.50714,-1.195047 -1.11632,-0.928728 -0.25651,0.112144 -0.55569,0.184997 -0.66483,0.161894 -0.10914,-0.0231 -0.19843,0.469442 -0.19843,1.094541 0,1.101585 0.0273,1.138391 0.88884,1.196409 0.51414,0.03463 1.02148,-0.09995 1.20347,-0.319241 z m -1.58281,0.05438 c -0.30969,-1.318684 0.14222,-2.280738 0.92944,-1.978652 0.61912,0.237577 0.36633,0.841737 -0.34125,0.815591 -0.79768,-0.02947 -0.71219,0.364776 0.10115,0.466455 0.36833,0.04605 0.66969,0.202782 0.66969,0.348303 0,0.231399 -1.30778,0.566568 -1.35903,0.348303 z m 25.24143,1.11179 c -1.21064,-0.257607 -2.60617,-0.900539 -3.3275,-1.533007 -1.78434,-1.5645 1.73273,-3.763544 6.01927,-3.763544 1.9094,0 4.49976,0.616598 5.42396,1.291098 2.52055,1.839555 0.11545,3.931824 -4.7625,4.143044 -1.23693,0.05356 -2.74588,-0.0084 -3.35323,-0.137591 z m 2.03031,-2.797181 c 0,-0.795612 -0.0488,-0.835353 -0.99219,-0.808167 -1.27649,0.03678 -1.5562,0.544132 -0.33073,0.599887 l 0.92604,0.04214 -0.92604,-0.216559 -0.92604,-0.216558 0.92604,0.04213 c 0.73561,0.03347 0.92604,0.15095 0.92604,0.571299 0,0.420349 -0.19043,0.537832 -0.92604,0.571299 l -0.92604,0.04214 0.92604,-0.205742 0.92604,-0.205741 -0.84428,-0.03483 c -0.8341,-0.03441 -1.29222,0.254016 -0.94884,0.597389 0.0973,0.09727 0.62981,0.150133 1.18343,0.117467 0.941,-0.05552 1.00657,-0.1139 1.00657,-0.896149 z m 0.7163,-0.445764 c -0.0633,-0.329118 -0.11747,-0.122148 -0.12041,0.459935 -0.003,0.582084 0.0488,0.851363 0.11507,0.598398 0.0662,-0.252966 0.0686,-0.729216 0.005,-1.058333 z m 1.32291,0 c -0.0633,-0.329118 -0.11747,-0.122148 -0.1204,0.459935 -0.003,0.582084 0.0488,0.851363 0.11506,0.598398 0.0662,-0.252966 0.0686,-0.729216 0.005,-1.058333 z m -22.94129,-27.982773 c 0,-6.726854 -0.0281,-7.14375 -0.48063,-7.14375 -0.67758,0 -10.76868,-2.271048 -11.15672,-2.510872 -0.1986,-0.122743 -0.26158,-0.511577 -0.1662,-1.026189 0.0845,-0.455711 0.20967,-1.158775 0.27823,-1.562365 0.26846,-1.580292 0.29838,-1.581123 6.58944,-0.183099 5.89926,1.31096 5.99421,1.347959 5.99421,2.335789 v 0.768776 l 3.50573,0.09836 c 1.92815,0.0541 5.06101,0.05651 6.96192,0.0053 l 3.45619,-0.09302 -0.11168,-0.760947 c -0.0887,-0.604731 0.0165,-0.816088 0.51256,-1.029557 1.44263,-0.620709 12.05472,-3.46663 12.66209,-3.395629 0.4745,0.05547 0.68818,0.261916 0.75401,0.728493 0.0505,0.3581 0.27018,0.781492 0.48814,0.940866 0.22144,0.161917 0.35602,0.575093 0.30502,0.936411 -0.0837,0.59269 -0.59893,0.816406 -6.17669,2.681761 -3.34698,1.11932 -6.35331,2.042054 -6.68073,2.050521 l -0.59531,0.0154 v 7.14375 7.14375 h -3.83646 c -3.51307,0 -4.75993,-0.240022 -3.23503,-0.622747 0.39694,-0.09963 0.84141,-0.640292 1.30732,-1.590257 0.58858,-1.200097 0.69494,-1.740442 0.63992,-3.251174 -0.0388,-1.066596 -0.24855,-2.157182 -0.50983,-2.651387 -0.44144,-0.834951 -0.43944,-0.843237 0.36645,-1.521354 0.52545,-0.442132 1.12873,-0.681831 1.71606,-0.681831 0.62871,0 0.90574,-0.121386 0.90574,-0.396875 0,-0.57509 -2.19857,-0.52877 -3.10544,0.06543 -0.67709,0.443648 -0.69807,0.442775 -0.51985,-0.02164 0.10213,-0.266168 0.1857,-0.708187 0.1857,-0.982263 0,-0.274077 0.37777,-0.928574 0.83948,-1.454436 0.74006,-0.842883 0.94374,-0.936556 1.7198,-0.790966 0.76425,0.143377 0.88031,0.09381 0.88031,-0.376008 0,-0.471691 -0.1668,-0.541155 -1.2994,-0.541155 -1.11784,0 -1.39236,0.110477 -1.96471,0.790676 -0.36592,0.434872 -0.87709,1.476669 -1.13594,2.315104 -0.41209,1.334799 -0.48301,1.429168 -0.5701,0.758627 -0.0621,-0.478026 0.1571,-1.237179 0.58326,-2.020181 0.3755,-0.689909 0.68272,-1.387094 0.68272,-1.549303 0,-0.538003 -1.01789,-0.30998 -1.20172,0.269203 -0.12612,0.397375 -0.23903,0.467075 -0.38197,0.235794 -0.27289,-0.441557 -2.38506,-0.09449 -2.38506,0.391912 0,0.193365 0.0893,0.40151 0.19844,0.462547 0.10914,0.06104 0.0198,0.06262 -0.19844,0.0035 -1.57721,-0.427037 -1.90576,-0.41221 -1.81063,0.08172 0.0589,0.305774 0.46352,0.597239 1.06347,0.766038 1.38747,0.390366 1.41061,0.551548 0.0638,0.444431 -1.05729,-0.08409 -1.16875,-0.03721 -1.16875,0.491538 0,0.482393 0.10927,0.557067 0.62556,0.42749 0.4186,-0.105064 0.82772,0.01834 1.23664,0.372993 l 0.6111,0.529998 -0.63319,1.119677 c -0.93299,1.649833 -1.29966,3.763208 -0.88942,5.126323 0.59219,1.967685 1.14706,2.757289 2.30801,3.284376 l 1.10693,0.502565 -4.16719,0.0058 -4.16719,0.0058 z m 5.91263,-14.81542 c -0.31331,-0.126389 -0.90862,-0.657432 -1.32291,-1.1801 -0.4143,-0.522665 -1.19975,-1.261341 -1.74545,-1.641499 -0.97198,-0.67712 -1.31716,-1.413953 -0.66146,-1.411992 0.75002,0.0022 2.99604,1.754533 3.57832,2.791722 0.25283,0.45035 0.58007,0.513276 2.62169,0.504127 2.09528,-0.0094 2.51181,-0.09924 4.09091,-0.882516 0.96696,-0.479635 2.09056,-1.219072 2.4969,-1.643193 0.80268,-0.837819 1.69812,-1.022652 1.69812,-0.350519 0,0.837376 -3.16253,3.023635 -5.28606,3.654254 -1.52011,0.451424 -4.52913,0.539281 -5.47006,0.159716 z"
         id="path486" /><path
         style="fill:#21b04b;stroke-width:0.264583"
         d="m -126.06072,53.826825 c -0.0924,-0.291198 -0.3981,-0.652574 -0.67929,-0.803061 -0.28118,-0.150484 -0.51124,-0.404283 -0.51124,-0.563996 0,-0.571725 -1.10985,-1.275649 -1.7557,-1.113549 -0.51628,0.129577 -0.62555,0.0549 -0.62555,-0.42749 0,-0.528749 0.11146,-0.575625 1.16874,-0.491538 1.34679,0.107117 1.32365,-0.05407 -0.0638,-0.444431 -0.59996,-0.168799 -1.0046,-0.460264 -1.06348,-0.766038 -0.0951,-0.493929 0.23343,-0.508756 1.81063,-0.08172 0.21828,0.0591 0.30758,0.05752 0.19844,-0.0035 -0.10914,-0.06104 -0.19844,-0.269182 -0.19844,-0.462547 0,-0.4864 2.11217,-0.833469 2.38507,-0.391912 0.14293,0.231281 0.25584,0.161581 0.38196,-0.235794 0.18383,-0.579183 1.20172,-0.807206 1.20172,-0.269203 0,0.162209 -0.30722,0.859394 -0.68271,1.549303 -0.42617,0.783002 -0.64535,1.542155 -0.58326,2.020181 0.0871,0.670541 0.158,0.576172 0.57009,-0.758627 0.25885,-0.838435 0.77002,-1.880232 1.13595,-2.315104 0.57235,-0.680199 0.84686,-0.790676 1.9647,-0.790676 1.13261,0 1.2994,0.06946 1.2994,0.541155 0,0.469813 -0.11606,0.519385 -0.88031,0.37601 -0.77606,-0.145589 -0.97973,-0.05192 -1.71979,0.790967 -0.46172,0.525862 -0.83948,1.180359 -0.83948,1.454436 0,0.274076 -0.0836,0.716094 -0.18571,0.982263 -0.17821,0.464415 -0.15724,0.465288 0.51986,0.02164 0.90686,-0.594201 3.10543,-0.640521 3.10543,-0.06543 0,0.278096 -0.28054,0.396875 -0.93738,0.396875 -0.746,0 -1.19724,0.243078 -2.21025,1.190625 -1.40959,1.318511 -2.51432,1.578856 -2.80559,0.661178 z"
         id="path484" /><path
         style="fill:#000000;stroke-width:0.264583"
         d="m -125.81029,32.108218 c -0.27266,-0.441171 0.34057,-0.947078 0.70557,-0.582083 0.3053,0.305309 0.11422,0.86972 -0.29445,0.86972 -0.12834,0 -0.31335,-0.129436 -0.41112,-0.287637 z m -1.05834,-16.66875 c -0.27266,-0.441171 0.34058,-0.947078 0.70557,-0.582083 0.30531,0.305309 0.11423,0.86972 -0.29444,0.86972 -0.12835,0 -0.31335,-0.129436 -0.41113,-0.287637 z"
         id="path482" /></g><image
       width="43.476242"
       height="81.998215"
       preserveAspectRatio="none"
       style="display:inline;image-rendering:optimizeQuality"
       xlink:href="phil-front-view.png"
       id="image53"
       x="91.719009"
       y="37.473858"
       inkscape:label="Phil front"
       inkscape:export-filename="..\src\com\fishtankapps\bookitbaby\images\phil-front-view.png"
       inkscape:export-xdpi="96"
       inkscape:export-ydpi="96" /><image
       width="49.883602"
       height="80.992195"
       preserveAspectRatio="none"
       style="display:inline;image-rendering:optimizeQuality"
       xlink:href="phil-side-view.png"
       id="image65"
       x="88.515335"
       y="37.976868"
       inkscape:label="Phil side"
       inkscape:export-filename="..\src\com\fishtankapps\bookitbaby\images\phil-side-view.png"
       inkscape:export-xdpi="96"
       inkscape:export-ydpi="96" /></g></svg>
