<?xml version="1.0" encoding="UTF-8" standalone="no"?>
<svg width="2976.38px" height="4209.45px" viewBox="0 0 2976.38 4209.45"
 xmlns="http://www.w3.org/2000/svg" xmlns:xlink="http://www.w3.org/1999/xlink" version="1.2" baseProfile="tiny">
<title>Random Song</title>
<desc>Generated by MuseScore 3.6.2</desc>
<polyline class="StaffLines" fill="none" stroke="#000000" stroke-width="2.73" stroke-linejoin="bevel" points="336.614,634.252 2763.78,634.252"/>
<polyline class="StaffLines" fill="none" stroke="#000000" stroke-width="2.73" stroke-linejoin="bevel" points="336.614,659.055 2763.78,659.055"/>
<polyline class="StaffLines" fill="none" stroke="#000000" stroke-width="2.73" stroke-linejoin="bevel" points="336.614,683.858 2763.78,683.858"/>
<polyline class="StaffLines" fill="none" stroke="#000000" stroke-width="2.73" stroke-linejoin="bevel" points="336.614,708.661 2763.78,708.661"/>
<polyline class="StaffLines" fill="none" stroke="#000000" stroke-width="2.73" stroke-linejoin="bevel" points="336.614,733.465 2763.78,733.465"/>
<path class="Text" d="M1161.74,256.098 L1168.11,256.098 C1179.22,256.536 1183.63,261.052 1184.83,273.145 L1185.38,278.755 C1186.71,291.192 1190.77,296.255 1199.47,296.255 C1208.49,296.255 1212.77,290.192 1213.11,277.005 L1208.49,277.005 C1208.05,284.583 1206.72,287.895 1203.75,287.895 C1201.22,287.895 1200.13,286.02 1198.25,278.427 L1196.5,271.505 C1194.08,261.38 1189.79,256.755 1181.21,254.552 C1197.05,252.364 1204.63,245.973 1204.63,234.864 C1204.63,222.333 1194.08,215.177 1175.6,215.177 L1137.54,215.177 L1137.54,220.348 L1139.52,220.348 C1145.79,220.458 1147.88,220.786 1148.75,221.895 C1149.41,222.88 1149.41,223.098 1149.41,228.708 L1149.41,281.177 C1149.41,286.677 1149.41,286.895 1148.75,288.005 C1147.88,289.098 1145.79,289.427 1139.52,289.427 L1137.54,289.427 L1137.54,294.598 L1173.61,294.598 L1173.61,289.427 L1171.63,289.427 C1165.36,289.427 1163.27,289.098 1162.4,288.005 C1161.74,286.895 1161.74,286.677 1161.74,281.177 L1161.74,256.098 M1161.74,250.927 L1161.74,226.723 C1161.52,220.677 1162.07,220.239 1169.33,220.348 L1175.27,220.348 C1186.16,220.348 1191.11,224.973 1191.11,234.973 C1191.11,240.583 1189.68,244.88 1186.82,247.192 C1184.07,249.505 1179.11,250.927 1173.83,250.927 L1161.74,250.927 M1264.4,259.177 C1264.4,252.255 1263.19,248.723 1259.99,246.083 C1256.36,243.114 1250.97,241.692 1243.94,241.692 C1231.5,241.692 1222.49,247.52 1222.49,255.552 C1222.49,259.614 1225.02,262.255 1228.86,262.255 C1232.38,262.255 1234.8,259.942 1234.8,256.645 C1234.8,255.223 1234.25,253.677 1233.16,252.145 C1232.49,251.364 1232.38,251.145 1232.38,250.598 C1232.38,248.395 1236.79,246.411 1242.07,246.411 C1245.58,246.411 1249.44,247.52 1251.19,249.161 C1253.29,250.927 1254.05,253.567 1254.05,258.52 L1254.05,262.802 C1242.61,264.786 1238.99,265.661 1233.6,267.755 C1224.02,271.286 1219.52,276.333 1219.52,283.38 C1219.52,291.302 1225.68,296.255 1235.47,296.255 C1243.05,296.255 1249.88,293.161 1254.61,287.552 C1256.36,293.161 1259.11,295.364 1264.29,295.364 C1269.24,295.364 1274.41,292.177 1274.41,288.989 C1274.41,288.223 1273.97,287.661 1273.3,287.661 C1272.86,287.661 1272.43,287.786 1271.66,288.114 C1270.11,288.77 1269.46,288.88 1268.58,288.88 C1265.49,288.88 1264.4,286.895 1264.4,281.286 L1264.4,259.177 M1254.05,272.598 C1254.05,279.192 1253.72,280.739 1251.86,283.598 C1249.11,287.661 1244.16,290.411 1239.32,290.411 C1234.25,290.411 1230.63,286.786 1230.63,281.833 C1230.63,277.223 1232.94,273.911 1237.77,271.614 C1241.19,270.067 1245.47,268.973 1254.05,267.536 L1254.05,272.598 M1297.68,243.333 L1278.65,244.552 L1278.65,249.286 L1282.61,249.286 C1286.79,249.395 1287.33,250.052 1287.33,254.786 L1287.33,281.067 L1287.33,283.708 L1287.33,286.239 C1287.22,287.895 1287.11,288.552 1286.68,289.098 C1285.91,290.083 1283.82,290.536 1279.08,290.645 L1278.65,290.645 L1278.65,294.598 L1306.47,294.598 L1306.47,290.645 L1306.04,290.645 C1298.66,290.411 1297.68,289.864 1297.68,285.911 L1297.68,281.067 L1297.68,269.63 C1297.68,264.239 1298.44,259.286 1299.66,256.755 C1301.97,251.802 1306.91,248.395 1311.65,248.395 C1314.5,248.395 1317.8,249.942 1319.46,252.255 C1321.11,254.661 1321.88,257.973 1321.88,263.255 L1321.88,281.067 L1321.88,286.239 C1321.77,287.895 1321.66,288.552 1321.22,289.098 C1320.44,290.083 1318.24,290.536 1313.52,290.645 L1313.08,290.645 L1313.08,294.598 L1340.91,294.598 L1340.91,290.645 L1340.47,290.645 C1333.21,290.411 1332.22,289.864 1332.22,285.911 L1332.22,281.067 L1332.22,263.802 C1332.22,255.88 1331.88,253.895 1329.91,250.161 C1327.16,244.88 1321.66,241.692 1315.05,241.692 C1307.91,241.692 1302.52,244.989 1297.68,252.255 L1297.68,243.333 M1384.47,295.364 L1403.61,294.598 L1403.61,289.864 L1401.63,289.864 C1395.36,289.536 1394.82,288.88 1394.82,281.833 L1394.82,213.52 L1373.25,214.739 L1373.25,219.473 L1379.74,219.473 C1383.93,219.583 1384.47,220.239 1384.47,224.973 L1384.47,249.833 C1380.41,244.223 1375.68,241.692 1369.3,241.692 C1356.86,241.692 1347.41,253.677 1347.41,269.52 C1347.41,285.145 1356.54,296.255 1369.3,296.255 C1376.22,296.255 1380.96,293.286 1384.47,286.677 L1384.47,295.364 M1371.49,247.63 C1376,247.63 1380.3,250.927 1382.27,255.989 C1383.71,259.286 1384.36,263.802 1384.36,269.192 C1384.36,282.052 1379.3,290.302 1371.38,290.302 C1363.58,290.302 1358.96,283.052 1358.96,270.833 C1358.96,264.239 1359.61,259.286 1361.05,255.661 C1362.91,250.708 1366.99,247.63 1371.49,247.63 M1433.4,241.692 C1419.86,241.692 1409.41,253.677 1409.41,269.083 C1409.41,284.145 1419.97,296.255 1433.18,296.255 C1446.38,296.255 1456.94,284.145 1456.94,268.973 C1456.94,253.895 1446.38,241.692 1433.4,241.692 M1433.4,246.411 C1441.1,246.411 1445.38,254.442 1445.38,268.973 C1445.38,283.598 1441.1,291.52 1433.18,291.52 C1425.25,291.52 1420.97,283.598 1420.97,269.083 C1420.97,254.114 1425.15,246.411 1433.4,246.411 M1482.79,243.333 L1463.21,244.552 L1463.21,249.286 L1467.72,249.286 C1471.9,249.395 1472.44,250.052 1472.44,254.786 L1472.44,281.067 L1472.44,285.364 L1472.44,286.239 C1472.33,287.895 1472.22,288.552 1471.79,289.098 C1471.02,290.083 1468.93,290.536 1464.19,290.645 L1463.75,290.645 L1463.75,294.598 L1491.47,294.598 L1491.47,290.645 L1491.04,290.645 C1483.77,290.411 1482.79,289.864 1482.79,285.802 L1482.79,281.067 L1482.79,265.442 C1482.79,255.661 1488.18,248.395 1495.33,248.395 C1501.6,248.395 1504.79,252.911 1504.79,261.817 L1504.79,281.067 L1504.79,286.348 C1504.68,287.786 1504.57,288.552 1504.02,289.098 C1503.36,290.083 1501.16,290.536 1496.43,290.645 L1495.99,290.645 L1495.99,294.598 L1523.82,294.598 L1523.82,290.645 L1523.38,290.645 C1516.11,290.411 1515.13,289.864 1515.13,285.911 L1515.13,281.067 L1515.13,266.442 C1515.13,255.442 1520.08,248.395 1527.77,248.395 C1534.05,248.395 1537.13,253.13 1537.13,263.036 L1537.13,281.067 L1537.13,286.239 C1537.02,287.786 1536.91,288.552 1536.36,289.098 C1535.69,290.083 1533.5,290.536 1528.77,290.645 L1528.33,290.645 L1528.33,294.598 L1556.16,294.598 L1556.16,290.645 L1555.72,290.645 C1548.46,290.411 1547.47,289.864 1547.47,285.802 L1547.47,281.067 L1547.47,260.833 C1547.47,254.005 1546.8,251.692 1543.94,247.958 C1540.75,243.895 1536.25,241.692 1530.97,241.692 C1523.82,241.692 1518.54,245.098 1513.8,252.692 C1511.94,246.083 1505.99,241.692 1498.63,241.692 C1491.91,241.692 1487.08,244.88 1482.79,251.802 L1482.79,243.333 M1649.74,214.52 L1645.66,214.52 L1641.27,221.114 C1635.99,216.161 1629.05,213.52 1621.24,213.52 C1606.72,213.52 1597.16,222.661 1597.16,236.52 C1597.16,248.505 1603.1,254.442 1619.27,258.63 L1629.72,261.27 C1637.86,263.364 1638.63,263.583 1640.94,265.333 C1644.24,267.864 1646,271.505 1646,275.786 C1646,280.192 1644.35,283.817 1641.05,286.895 C1637.41,289.973 1633.79,291.192 1627.74,291.192 C1619.6,291.192 1613.77,288.661 1608.6,282.942 C1603.97,277.88 1601.66,272.598 1600.02,264.13 L1595.29,264.13 L1595.72,295.473 L1600.02,295.473 L1604.97,288.005 C1612.33,294.052 1618.38,296.255 1628.07,296.255 C1644.24,296.255 1654.58,286.786 1654.58,272.052 C1654.58,265.114 1652.38,259.395 1647.97,255.223 C1645,252.364 1640.72,250.489 1631.91,248.286 L1620.15,245.317 C1610.36,242.786 1605.74,238.505 1605.74,231.786 C1605.74,224.083 1612,218.802 1621.36,218.802 C1629.05,218.802 1635.33,222.114 1639.72,228.38 C1642.91,232.895 1645,237.505 1646.33,243.114 L1651.05,243.114 L1649.74,214.52 M1687.4,241.692 C1673.86,241.692 1663.41,253.677 1663.41,269.083 C1663.41,284.145 1673.97,296.255 1687.18,296.255 C1700.38,296.255 1710.94,284.145 1710.94,268.973 C1710.94,253.895 1700.38,241.692 1687.4,241.692 M1687.4,246.411 C1695.1,246.411 1699.38,254.442 1699.38,268.973 C1699.38,283.598 1695.1,291.52 1687.18,291.52 C1679.25,291.52 1674.97,283.598 1674.97,269.083 C1674.97,254.114 1679.15,246.411 1687.4,246.411 M1736.68,243.333 L1717.65,244.552 L1717.65,249.286 L1721.61,249.286 C1725.79,249.395 1726.33,250.052 1726.33,254.786 L1726.33,281.067 L1726.33,283.708 L1726.33,286.239 C1726.22,287.895 1726.11,288.552 1725.68,289.098 C1724.91,290.083 1722.82,290.536 1718.08,290.645 L1717.65,290.645 L1717.65,294.598 L1745.47,294.598 L1745.47,290.645 L1745.04,290.645 C1737.66,290.411 1736.68,289.864 1736.68,285.911 L1736.68,281.067 L1736.68,269.63 C1736.68,264.239 1737.44,259.286 1738.66,256.755 C1740.97,251.802 1745.91,248.395 1750.65,248.395 C1753.5,248.395 1756.8,249.942 1758.46,252.255 C1760.11,254.661 1760.88,257.973 1760.88,263.255 L1760.88,281.067 L1760.88,286.239 C1760.77,287.895 1760.66,288.552 1760.22,289.098 C1759.44,290.083 1757.24,290.536 1752.52,290.645 L1752.08,290.645 L1752.08,294.598 L1779.91,294.598 L1779.91,290.645 L1779.47,290.645 C1772.21,290.411 1771.22,289.864 1771.22,285.911 L1771.22,281.067 L1771.22,263.802 C1771.22,255.88 1770.88,253.895 1768.91,250.161 C1766.16,244.88 1760.66,241.692 1754.05,241.692 C1746.91,241.692 1741.52,244.989 1736.68,252.255 L1736.68,243.333 M1803.24,286.458 C1797.19,286.348 1796.86,286.239 1795.54,285.473 C1794.77,285.036 1794.22,283.817 1794.22,282.614 C1794.22,279.302 1797.19,277.88 1804.55,277.661 C1814.9,277.442 1816.55,277.223 1820.29,275.567 C1826.88,272.598 1830.52,266.88 1830.52,259.614 C1830.52,255.223 1829.52,252.473 1826.55,248.833 C1828.43,246.864 1829.41,246.192 1830.3,246.192 C1830.85,246.192 1831.18,246.536 1831.4,247.739 C1831.83,250.38 1833.6,251.802 1836.35,251.802 C1839.21,251.802 1841.3,249.505 1841.3,246.536 C1841.3,242.786 1838.33,240.145 1834.04,240.145 C1830.52,240.145 1828.54,241.255 1823.47,245.864 C1818.86,242.786 1815.33,241.692 1809.83,241.692 C1796.74,241.692 1788.16,248.942 1788.16,259.942 C1788.16,266.442 1791.69,271.942 1797.41,274.692 C1790.04,276.333 1786.96,279.645 1786.96,285.692 C1786.96,290.536 1789.16,293.395 1794.33,295.145 C1787.5,297.677 1784.21,301.083 1784.21,305.598 C1784.21,308.895 1786.41,311.973 1789.93,313.848 C1794.22,316.052 1799.49,316.927 1807.41,316.927 C1825.79,316.927 1834.91,311.098 1834.91,299.552 C1834.91,294.052 1832.38,289.645 1828.43,288.005 C1825.46,286.895 1821.94,286.458 1814.46,286.458 L1803.24,286.458 M1809.72,246.411 C1816.55,246.411 1820.4,251.145 1820.4,259.723 C1820.4,268.302 1816.22,273.473 1809.29,273.473 C1802.47,273.473 1798.18,268.302 1798.18,260.052 C1798.18,251.364 1802.36,246.411 1809.72,246.411 M1808.74,295.911 C1817.86,295.911 1818.52,295.911 1820.07,296.145 C1824.58,296.583 1827.22,299.005 1827.22,302.52 C1827.22,308.786 1820.07,312.411 1807.86,312.411 C1798.5,312.411 1793.33,309.661 1793.33,304.723 C1793.33,301.083 1795.32,298.661 1800.6,295.911 L1808.74,295.911 "/>
<polyline class="BarLine" fill="none" stroke="#000000" stroke-width="4.46" stroke-linejoin="bevel" points="881.738,632.888 881.738,734.829"/>
<polyline class="BarLine" fill="none" stroke="#000000" stroke-width="4.46" stroke-linejoin="bevel" points="1486.12,632.888 1486.12,734.829"/>
<polyline class="BarLine" fill="none" stroke="#000000" stroke-width="4.46" stroke-linejoin="bevel" points="2043.48,632.888 2043.48,734.829"/>
<polyline class="BarLine" fill="none" stroke="#000000" stroke-width="4.46" stroke-linejoin="bevel" points="2510.98,632.888 2510.98,734.829"/>
<polyline class="BarLine" fill="none" stroke="#000000" stroke-width="4.46" stroke-linejoin="bevel" points="2739.6,632.888 2739.6,734.829"/>
<polyline class="BarLine" fill="none" stroke="#000000" stroke-width="13.64" stroke-linejoin="bevel" points="2756.96,632.888 2756.96,734.829"/>
<polyline class="LedgerLine" fill="none" stroke="#000000" stroke-width="3.97" stroke-linejoin="bevel" points="610.642,783.071 660.241,783.071"/>
<polyline class="LedgerLine" fill="none" stroke="#000000" stroke-width="3.97" stroke-linejoin="bevel" points="610.642,758.268 660.241,758.268"/>
<polyline class="LedgerLine" fill="none" stroke="#000000" stroke-width="3.97" stroke-linejoin="bevel" points="674.223,758.268 723.822,758.268"/>
<polyline class="LedgerLine" fill="none" stroke="#000000" stroke-width="3.97" stroke-linejoin="bevel" points="737.803,758.268 787.402,758.268"/>
<polyline class="LedgerLine" fill="none" stroke="#000000" stroke-width="3.97" stroke-linejoin="bevel" points="1021.83,758.268 1071.43,758.268"/>
<polyline class="LedgerLine" fill="none" stroke="#000000" stroke-width="3.97" stroke-linejoin="bevel" points="1260.91,758.268 1310.5,758.268"/>
<polyline class="Stem" fill="none" stroke="#000000" stroke-width="2.73" stroke-linejoin="bevel" points="1061.38,730.29 1061.38,646.654"/>
<polyline class="Stem" fill="none" stroke="#000000" stroke-width="2.73" stroke-linejoin="bevel" points="1204.25,717.888 1204.25,634.252"/>
<polyline class="Stem" fill="none" stroke="#000000" stroke-width="2.73" stroke-linejoin="bevel" points="1371.89,717.888 1371.89,634.252"/>
<polyline class="Stem" fill="none" stroke="#000000" stroke-width="2.73" stroke-linejoin="bevel" points="1551.47,717.888 1551.47,634.252"/>
<polyline class="Stem" fill="none" stroke="#000000" stroke-width="2.73" stroke-linejoin="bevel" points="1680.39,717.888 1680.39,634.252"/>
<polyline class="Stem" fill="none" stroke="#000000" stroke-width="2.73" stroke-linejoin="bevel" points="1809.3,705.487 1809.3,624.951"/>
<polyline class="Stem" fill="none" stroke="#000000" stroke-width="2.73" stroke-linejoin="bevel" points="1938.22,717.888 1938.22,634.252"/>
<polyline class="Stem" fill="none" stroke="#000000" stroke-width="2.73" stroke-linejoin="bevel" points="2108.83,680.683 2108.83,606.348"/>
<polyline class="Stem" fill="none" stroke="#000000" stroke-width="2.73" stroke-linejoin="bevel" points="2201.86,693.085 2201.86,615.65"/>
<polyline class="Stem" fill="none" stroke="#000000" stroke-width="2.73" stroke-linejoin="bevel" points="2318.14,693.085 2318.14,615.65"/>
<polyline class="Stem" fill="none" stroke="#000000" stroke-width="2.73" stroke-linejoin="bevel" points="2411.16,693.085 2411.16,615.65"/>
<polyline class="Stem" fill="none" stroke="#000000" stroke-width="2.73" stroke-linejoin="bevel" points="620.688,786.404 620.688,857.48"/>
<polyline class="Stem" fill="none" stroke="#000000" stroke-width="2.73" stroke-linejoin="bevel" points="684.268,774.003 684.268,849.213"/>
<polyline class="Stem" fill="none" stroke="#000000" stroke-width="2.73" stroke-linejoin="bevel" points="747.849,761.601 747.849,840.945"/>
<polyline class="Stem" fill="none" stroke="#000000" stroke-width="2.73" stroke-linejoin="bevel" points="811.429,749.2 811.429,832.677"/>
<polyline class="Stem" fill="none" stroke="#000000" stroke-width="2.73" stroke-linejoin="bevel" points="917.579,749.2 917.579,807.874"/>
<polyline class="Stem" fill="none" stroke="#000000" stroke-width="2.73" stroke-linejoin="bevel" points="1031.87,761.601 1031.87,832.677"/>
<polyline class="Stem" fill="none" stroke="#000000" stroke-width="2.73" stroke-linejoin="bevel" points="1103.31,749.2 1103.31,826.476"/>
<polyline class="Stem" fill="none" stroke="#000000" stroke-width="2.73" stroke-linejoin="bevel" points="1204.25,736.798 1204.25,814.075"/>
<polyline class="Stem" fill="none" stroke="#000000" stroke-width="2.73" stroke-linejoin="bevel" points="1270.95,761.601 1270.95,832.677"/>
<polyline class="Stem" fill="none" stroke="#000000" stroke-width="2.73" stroke-linejoin="bevel" points="1342.38,749.2 1342.38,807.874"/>
<polyline class="Stem" fill="none" stroke="#000000" stroke-width="2.73" stroke-linejoin="bevel" points="1521.96,724.397 1521.96,801.673"/>
<polyline class="Stem" fill="none" stroke="#000000" stroke-width="2.73" stroke-linejoin="bevel" points="1586.42,736.798 1586.42,801.673"/>
<polyline class="Stem" fill="none" stroke="#000000" stroke-width="2.73" stroke-linejoin="bevel" points="1650.88,724.397 1650.88,801.673"/>
<polyline class="Stem" fill="none" stroke="#000000" stroke-width="2.73" stroke-linejoin="bevel" points="1715.34,736.798 1715.34,801.673"/>
<polyline class="Stem" fill="none" stroke="#000000" stroke-width="2.73" stroke-linejoin="bevel" points="1779.8,749.2 1779.8,814.075"/>
<polyline class="Stem" fill="none" stroke="#000000" stroke-width="2.73" stroke-linejoin="bevel" points="1844.26,736.798 1844.26,814.075"/>
<polyline class="Stem" fill="none" stroke="#000000" stroke-width="2.73" stroke-linejoin="bevel" points="1908.71,749.2 1908.71,814.075"/>
<polyline class="Stem" fill="none" stroke="#000000" stroke-width="2.73" stroke-linejoin="bevel" points="1973.17,749.2 1973.17,814.075"/>
<polyline class="Stem" fill="none" stroke="#000000" stroke-width="2.73" stroke-linejoin="bevel" points="2079.32,749.2 2079.32,807.874"/>
<polyline class="Stem" fill="none" stroke="#000000" stroke-width="2.73" stroke-linejoin="bevel" points="2172.35,736.798 2172.35,807.874"/>
<polyline class="Stem" fill="none" stroke="#000000" stroke-width="2.73" stroke-linejoin="bevel" points="2230.49,711.995 2230.49,789.272"/>
<polyline class="Stem" fill="none" stroke="#000000" stroke-width="2.73" stroke-linejoin="bevel" points="2288.63,724.397 2288.63,789.272"/>
<polyline class="Stem" fill="none" stroke="#000000" stroke-width="2.73" stroke-linejoin="bevel" points="2411.16,711.995 2411.16,779.97"/>
<polyline class="Stem" fill="none" stroke="#000000" stroke-width="2.73" stroke-linejoin="bevel" points="650.196,742.691 650.196,665.256"/>
<polyline class="Stem" fill="none" stroke="#000000" stroke-width="2.73" stroke-linejoin="bevel" points="777.357,730.29 777.357,659.055"/>
<polyline class="Stem" fill="none" stroke="#000000" stroke-width="2.73" stroke-linejoin="bevel" points="947.087,717.888 947.087,634.252"/>
<polyline class="Stem" fill="none" stroke="#000000" stroke-width="2.73" stroke-linejoin="bevel" points="1061.38,693.085 1061.38,615.65"/>
<polyline class="Stem" fill="none" stroke="#000000" stroke-width="2.73" stroke-linejoin="bevel" points="1300.46,705.487 1300.46,634.252"/>
<polyline class="Stem" fill="none" stroke="#000000" stroke-width="2.73" stroke-linejoin="bevel" points="1371.89,693.085 1371.89,634.252"/>
<polyline class="Stem" fill="none" stroke="#000000" stroke-width="2.73" stroke-linejoin="bevel" points="1443.33,705.487 1443.33,634.252"/>
<polyline class="Stem" fill="none" stroke="#000000" stroke-width="2.73" stroke-linejoin="bevel" points="1551.47,655.88 1551.47,587.746"/>
<polyline class="Stem" fill="none" stroke="#000000" stroke-width="2.73" stroke-linejoin="bevel" points="1680.39,680.683 1680.39,606.348"/>
<polyline class="Stem" fill="none" stroke="#000000" stroke-width="2.73" stroke-linejoin="bevel" points="1873.76,693.085 1873.76,603.248"/>
<polyline class="Stem" fill="none" stroke="#000000" stroke-width="2.73" stroke-linejoin="bevel" points="1938.22,680.683 1938.22,597.047"/>
<polyline class="Stem" fill="none" stroke="#000000" stroke-width="2.73" stroke-linejoin="bevel" points="2002.68,668.282 2002.68,590.846"/>
<polyline class="Stem" fill="none" stroke="#000000" stroke-width="2.73" stroke-linejoin="bevel" points="2108.83,655.88 2108.83,587.746"/>
<polyline class="Stem" fill="none" stroke="#000000" stroke-width="2.73" stroke-linejoin="bevel" points="2318.14,643.479 2318.14,578.445"/>
<path class="Note" transform="matrix(0.992126,0,0,0.992126,1030.51,733.465)" d="M31.5,-8.09375 C29.7031,-11.4063 25.9063,-13.2031 21.2969,-13.2031 C17.9063,-13.2031 14.2031,-12.2031 10.5938,-10.2969 C4,-6.79688 0,-0.90625 0,4.20313 C0,5.59375 0.296875,7 1,8.29688 C2.79688,11.5938 6.59375,13.2969 11.2031,13.2969 C14.5938,13.2969 18.2969,12.4063 21.9063,10.5 C28.5,7 32.5,1.09375 32.5,-4 C32.5,-5.40625 32.2031,-6.79688 31.5,-8.09375"/>
<path class="Note" transform="matrix(0.992126,0,0,0.992126,1173.37,721.063)" d="M31.5,-8.09375 C29.7031,-11.4063 25.9063,-13.2031 21.2969,-13.2031 C17.9063,-13.2031 14.2031,-12.2031 10.5938,-10.2969 C4,-6.79688 0,-0.90625 0,4.20313 C0,5.59375 0.296875,7 1,8.29688 C2.79688,11.5938 6.59375,13.2969 11.2031,13.2969 C14.5938,13.2969 18.2969,12.4063 21.9063,10.5 C28.5,7 32.5,1.09375 32.5,-4 C32.5,-5.40625 32.2031,-6.79688 31.5,-8.09375"/>
<path class="Note" transform="matrix(0.992126,0,0,0.992126,1341.02,721.063)" d="M31.5,-8.09375 C29.7031,-11.4063 25.9063,-13.2031 21.2969,-13.2031 C17.9063,-13.2031 14.2031,-12.2031 10.5938,-10.2969 C4,-6.79688 0,-0.90625 0,4.20313 C0,5.59375 0.296875,7 1,8.29688 C2.79688,11.5938 6.59375,13.2969 11.2031,13.2969 C14.5938,13.2969 18.2969,12.4063 21.9063,10.5 C28.5,7 32.5,1.09375 32.5,-4 C32.5,-5.40625 32.2031,-6.79688 31.5,-8.09375"/>
<path class="Note" transform="matrix(0.992126,0,0,0.992126,1520.6,721.063)" d="M31.5,-8.09375 C29.7031,-11.4063 25.9063,-13.2031 21.2969,-13.2031 C17.9063,-13.2031 14.2031,-12.2031 10.5938,-10.2969 C4,-6.79688 0,-0.90625 0,4.20313 C0,5.59375 0.296875,7 1,8.29688 C2.79688,11.5938 6.59375,13.2969 11.2031,13.2969 C14.5938,13.2969 18.2969,12.4063 21.9063,10.5 C28.5,7 32.5,1.09375 32.5,-4 C32.5,-5.40625 32.2031,-6.79688 31.5,-8.09375"/>
<path class="Note" transform="matrix(0.992126,0,0,0.992126,1649.51,721.063)" d="M31.5,-8.09375 C29.7031,-11.4063 25.9063,-13.2031 21.2969,-13.2031 C17.9063,-13.2031 14.2031,-12.2031 10.5938,-10.2969 C4,-6.79688 0,-0.90625 0,4.20313 C0,5.59375 0.296875,7 1,8.29688 C2.79688,11.5938 6.59375,13.2969 11.2031,13.2969 C14.5938,13.2969 18.2969,12.4063 21.9063,10.5 C28.5,7 32.5,1.09375 32.5,-4 C32.5,-5.40625 32.2031,-6.79688 31.5,-8.09375"/>
<path class="Note" transform="matrix(0.992126,0,0,0.992126,1778.43,708.661)" d="M31.5,-8.09375 C29.7031,-11.4063 25.9063,-13.2031 21.2969,-13.2031 C17.9063,-13.2031 14.2031,-12.2031 10.5938,-10.2969 C4,-6.79688 0,-0.90625 0,4.20313 C0,5.59375 0.296875,7 1,8.29688 C2.79688,11.5938 6.59375,13.2969 11.2031,13.2969 C14.5938,13.2969 18.2969,12.4063 21.9063,10.5 C28.5,7 32.5,1.09375 32.5,-4 C32.5,-5.40625 32.2031,-6.79688 31.5,-8.09375"/>
<path class="Note" transform="matrix(0.992126,0,0,0.992126,1907.35,721.063)" d="M31.5,-8.09375 C29.7031,-11.4063 25.9063,-13.2031 21.2969,-13.2031 C17.9063,-13.2031 14.2031,-12.2031 10.5938,-10.2969 C4,-6.79688 0,-0.90625 0,4.20313 C0,5.59375 0.296875,7 1,8.29688 C2.79688,11.5938 6.59375,13.2969 11.2031,13.2969 C14.5938,13.2969 18.2969,12.4063 21.9063,10.5 C28.5,7 32.5,1.09375 32.5,-4 C32.5,-5.40625 32.2031,-6.79688 31.5,-8.09375"/>
<path class="Note" transform="matrix(0.992126,0,0,0.992126,2077.96,683.858)" d="M31.5,-8.09375 C29.7031,-11.4063 25.9063,-13.2031 21.2969,-13.2031 C17.9063,-13.2031 14.2031,-12.2031 10.5938,-10.2969 C4,-6.79688 0,-0.90625 0,4.20313 C0,5.59375 0.296875,7 1,8.29688 C2.79688,11.5938 6.59375,13.2969 11.2031,13.2969 C14.5938,13.2969 18.2969,12.4063 21.9063,10.5 C28.5,7 32.5,1.09375 32.5,-4 C32.5,-5.40625 32.2031,-6.79688 31.5,-8.09375"/>
<path class="Note" transform="matrix(0.992126,0,0,0.992126,2170.98,696.26)" d="M31.5,-8.09375 C29.7031,-11.4063 25.9063,-13.2031 21.2969,-13.2031 C17.9063,-13.2031 14.2031,-12.2031 10.5938,-10.2969 C4,-6.79688 0,-0.90625 0,4.20313 C0,5.59375 0.296875,7 1,8.29688 C2.79688,11.5938 6.59375,13.2969 11.2031,13.2969 C14.5938,13.2969 18.2969,12.4063 21.9063,10.5 C28.5,7 32.5,1.09375 32.5,-4 C32.5,-5.40625 32.2031,-6.79688 31.5,-8.09375"/>
<path class="Note" transform="matrix(0.992126,0,0,0.992126,2287.26,696.26)" d="M31.5,-8.09375 C29.7031,-11.4063 25.9063,-13.2031 21.2969,-13.2031 C17.9063,-13.2031 14.2031,-12.2031 10.5938,-10.2969 C4,-6.79688 0,-0.90625 0,4.20313 C0,5.59375 0.296875,7 1,8.29688 C2.79688,11.5938 6.59375,13.2969 11.2031,13.2969 C14.5938,13.2969 18.2969,12.4063 21.9063,10.5 C28.5,7 32.5,1.09375 32.5,-4 C32.5,-5.40625 32.2031,-6.79688 31.5,-8.09375"/>
<path class="Note" transform="matrix(0.992126,0,0,0.992126,2380.29,696.26)" d="M31.5,-8.09375 C29.7031,-11.4063 25.9063,-13.2031 21.2969,-13.2031 C17.9063,-13.2031 14.2031,-12.2031 10.5938,-10.2969 C4,-6.79688 0,-0.90625 0,4.20313 C0,5.59375 0.296875,7 1,8.29688 C2.79688,11.5938 6.59375,13.2969 11.2031,13.2969 C14.5938,13.2969 18.2969,12.4063 21.9063,10.5 C28.5,7 32.5,1.09375 32.5,-4 C32.5,-5.40625 32.2031,-6.79688 31.5,-8.09375"/>
<path class="Note" transform="matrix(0.992126,0,0,0.992126,2547.84,721.063)" d="M18.7031,-13.5938 C4.90625,-13.5938 0,-6.59375 0,-0.09375 C0,6.40625 4.90625,13.4063 18.7031,13.4063 C32.5,13.4063 37.2969,6.40625 37.2969,-0.09375 C37.2969,-6.59375 32.5,-13.5938 18.7031,-13.5938 M10.4063,-4.5 C10.2969,-4.90625 10.2969,-5.29688 10.2969,-5.70313 C10.2969,-6.5 10.5,-7.29688 10.9063,-8 C11.5938,-9 12.7969,-9.70313 14.2969,-10 C15.5938,-10.2969 16.2969,-10.5 18.9063,-10.5 L19,-10.5 C23,-10.5 24.2969,-6.79688 25.4063,-3 L25.7031,-2 C26.5,0.59375 26.9063,2.79688 26.9063,4.5 C26.9063,5.70313 26.7031,6.79688 26.2969,7.59375 C25.7031,8.70313 24.7031,9.40625 23,9.79688 C22.0938,10 20.5938,10.0938 20.5938,10.0938 C20.0938,10.0938 19.7031,10.2031 19.2969,10.2031 C16.0938,10.2031 14.0938,9 12.7031,4.70313 C11.5,1 11.2969,-0.09375 10.4063,-4.5"/>
<path class="Note" transform="matrix(0.992126,0,0,0.992126,619.324,783.071)" d="M31.5,-8.09375 C29.7031,-11.4063 25.9063,-13.2031 21.2969,-13.2031 C17.9063,-13.2031 14.2031,-12.2031 10.5938,-10.2969 C4,-6.79688 0,-0.90625 0,4.20313 C0,5.59375 0.296875,7 1,8.29688 C2.79688,11.5938 6.59375,13.2969 11.2031,13.2969 C14.5938,13.2969 18.2969,12.4063 21.9063,10.5 C28.5,7 32.5,1.09375 32.5,-4 C32.5,-5.40625 32.2031,-6.79688 31.5,-8.09375"/>
<path class="Note" transform="matrix(0.992126,0,0,0.992126,682.904,770.669)" d="M31.5,-8.09375 C29.7031,-11.4063 25.9063,-13.2031 21.2969,-13.2031 C17.9063,-13.2031 14.2031,-12.2031 10.5938,-10.2969 C4,-6.79688 0,-0.90625 0,4.20313 C0,5.59375 0.296875,7 1,8.29688 C2.79688,11.5938 6.59375,13.2969 11.2031,13.2969 C14.5938,13.2969 18.2969,12.4063 21.9063,10.5 C28.5,7 32.5,1.09375 32.5,-4 C32.5,-5.40625 32.2031,-6.79688 31.5,-8.09375"/>
<path class="Note" transform="matrix(0.992126,0,0,0.992126,746.485,758.268)" d="M31.5,-8.09375 C29.7031,-11.4063 25.9063,-13.2031 21.2969,-13.2031 C17.9063,-13.2031 14.2031,-12.2031 10.5938,-10.2969 C4,-6.79688 0,-0.90625 0,4.20313 C0,5.59375 0.296875,7 1,8.29688 C2.79688,11.5938 6.59375,13.2969 11.2031,13.2969 C14.5938,13.2969 18.2969,12.4063 21.9063,10.5 C28.5,7 32.5,1.09375 32.5,-4 C32.5,-5.40625 32.2031,-6.79688 31.5,-8.09375"/>
<path class="Note" transform="matrix(0.992126,0,0,0.992126,810.065,745.866)" d="M31.5,-8.09375 C29.7031,-11.4063 25.9063,-13.2031 21.2969,-13.2031 C17.9063,-13.2031 14.2031,-12.2031 10.5938,-10.2969 C4,-6.79688 0,-0.90625 0,4.20313 C0,5.59375 0.296875,7 1,8.29688 C2.79688,11.5938 6.59375,13.2969 11.2031,13.2969 C14.5938,13.2969 18.2969,12.4063 21.9063,10.5 C28.5,7 32.5,1.09375 32.5,-4 C32.5,-5.40625 32.2031,-6.79688 31.5,-8.09375"/>
<path class="Note" transform="matrix(0.992126,0,0,0.992126,916.215,745.866)" d="M31.5,-8.09375 C29.7031,-11.4063 25.9063,-13.2031 21.2969,-13.2031 C17.9063,-13.2031 14.2031,-12.2031 10.5938,-10.2969 C4,-6.79688 0,-0.90625 0,4.20313 C0,5.59375 0.296875,7 1,8.29688 C2.79688,11.5938 6.59375,13.2969 11.2031,13.2969 C14.5938,13.2969 18.2969,12.4063 21.9063,10.5 C28.5,7 32.5,1.09375 32.5,-4 C32.5,-5.40625 32.2031,-6.79688 31.5,-8.09375"/>
<path class="Note" transform="matrix(0.992126,0,0,0.992126,1030.51,758.268)" d="M31.5,-8.09375 C29.7031,-11.4063 25.9063,-13.2031 21.2969,-13.2031 C17.9063,-13.2031 14.2031,-12.2031 10.5938,-10.2969 C4,-6.79688 0,-0.90625 0,4.20313 C0,5.59375 0.296875,7 1,8.29688 C2.79688,11.5938 6.59375,13.2969 11.2031,13.2969 C14.5938,13.2969 18.2969,12.4063 21.9063,10.5 C28.5,7 32.5,1.09375 32.5,-4 C32.5,-5.40625 32.2031,-6.79688 31.5,-8.09375"/>
<path class="Note" transform="matrix(0.992126,0,0,0.992126,1101.94,745.866)" d="M31.5,-8.09375 C29.7031,-11.4063 25.9063,-13.2031 21.2969,-13.2031 C17.9063,-13.2031 14.2031,-12.2031 10.5938,-10.2969 C4,-6.79688 0,-0.90625 0,4.20313 C0,5.59375 0.296875,7 1,8.29688 C2.79688,11.5938 6.59375,13.2969 11.2031,13.2969 C14.5938,13.2969 18.2969,12.4063 21.9063,10.5 C28.5,7 32.5,1.09375 32.5,-4 C32.5,-5.40625 32.2031,-6.79688 31.5,-8.09375"/>
<path class="Note" transform="matrix(0.992126,0,0,0.992126,1202.88,733.465)" d="M31.5,-8.09375 C29.7031,-11.4063 25.9063,-13.2031 21.2969,-13.2031 C17.9063,-13.2031 14.2031,-12.2031 10.5938,-10.2969 C4,-6.79688 0,-0.90625 0,4.20313 C0,5.59375 0.296875,7 1,8.29688 C2.79688,11.5938 6.59375,13.2969 11.2031,13.2969 C14.5938,13.2969 18.2969,12.4063 21.9063,10.5 C28.5,7 32.5,1.09375 32.5,-4 C32.5,-5.40625 32.2031,-6.79688 31.5,-8.09375"/>
<path class="Note" transform="matrix(0.992126,0,0,0.992126,1269.59,758.268)" d="M31.5,-8.09375 C29.7031,-11.4063 25.9063,-13.2031 21.2969,-13.2031 C17.9063,-13.2031 14.2031,-12.2031 10.5938,-10.2969 C4,-6.79688 0,-0.90625 0,4.20313 C0,5.59375 0.296875,7 1,8.29688 C2.79688,11.5938 6.59375,13.2969 11.2031,13.2969 C14.5938,13.2969 18.2969,12.4063 21.9063,10.5 C28.5,7 32.5,1.09375 32.5,-4 C32.5,-5.40625 32.2031,-6.79688 31.5,-8.09375"/>
<path class="Note" transform="matrix(0.992126,0,0,0.992126,1341.02,745.866)" d="M31.5,-8.09375 C29.7031,-11.4063 25.9063,-13.2031 21.2969,-13.2031 C17.9063,-13.2031 14.2031,-12.2031 10.5938,-10.2969 C4,-6.79688 0,-0.90625 0,4.20313 C0,5.59375 0.296875,7 1,8.29688 C2.79688,11.5938 6.59375,13.2969 11.2031,13.2969 C14.5938,13.2969 18.2969,12.4063 21.9063,10.5 C28.5,7 32.5,1.09375 32.5,-4 C32.5,-5.40625 32.2031,-6.79688 31.5,-8.09375"/>
<path class="Note" transform="matrix(0.992126,0,0,0.992126,1520.6,721.063)" d="M31.5,-8.09375 C29.7031,-11.4063 25.9063,-13.2031 21.2969,-13.2031 C17.9063,-13.2031 14.2031,-12.2031 10.5938,-10.2969 C4,-6.79688 0,-0.90625 0,4.20313 C0,5.59375 0.296875,7 1,8.29688 C2.79688,11.5938 6.59375,13.2969 11.2031,13.2969 C14.5938,13.2969 18.2969,12.4063 21.9063,10.5 C28.5,7 32.5,1.09375 32.5,-4 C32.5,-5.40625 32.2031,-6.79688 31.5,-8.09375"/>
<path class="Note" transform="matrix(0.992126,0,0,0.992126,1585.05,733.465)" d="M31.5,-8.09375 C29.7031,-11.4063 25.9063,-13.2031 21.2969,-13.2031 C17.9063,-13.2031 14.2031,-12.2031 10.5938,-10.2969 C4,-6.79688 0,-0.90625 0,4.20313 C0,5.59375 0.296875,7 1,8.29688 C2.79688,11.5938 6.59375,13.2969 11.2031,13.2969 C14.5938,13.2969 18.2969,12.4063 21.9063,10.5 C28.5,7 32.5,1.09375 32.5,-4 C32.5,-5.40625 32.2031,-6.79688 31.5,-8.09375"/>
<path class="Note" transform="matrix(0.992126,0,0,0.992126,1649.51,721.063)" d="M31.5,-8.09375 C29.7031,-11.4063 25.9063,-13.2031 21.2969,-13.2031 C17.9063,-13.2031 14.2031,-12.2031 10.5938,-10.2969 C4,-6.79688 0,-0.90625 0,4.20313 C0,5.59375 0.296875,7 1,8.29688 C2.79688,11.5938 6.59375,13.2969 11.2031,13.2969 C14.5938,13.2969 18.2969,12.4063 21.9063,10.5 C28.5,7 32.5,1.09375 32.5,-4 C32.5,-5.40625 32.2031,-6.79688 31.5,-8.09375"/>
<path class="Note" transform="matrix(0.992126,0,0,0.992126,1713.97,733.465)" d="M31.5,-8.09375 C29.7031,-11.4063 25.9063,-13.2031 21.2969,-13.2031 C17.9063,-13.2031 14.2031,-12.2031 10.5938,-10.2969 C4,-6.79688 0,-0.90625 0,4.20313 C0,5.59375 0.296875,7 1,8.29688 C2.79688,11.5938 6.59375,13.2969 11.2031,13.2969 C14.5938,13.2969 18.2969,12.4063 21.9063,10.5 C28.5,7 32.5,1.09375 32.5,-4 C32.5,-5.40625 32.2031,-6.79688 31.5,-8.09375"/>
<path class="Note" transform="matrix(0.992126,0,0,0.992126,1778.43,745.866)" d="M31.5,-8.09375 C29.7031,-11.4063 25.9063,-13.2031 21.2969,-13.2031 C17.9063,-13.2031 14.2031,-12.2031 10.5938,-10.2969 C4,-6.79688 0,-0.90625 0,4.20313 C0,5.59375 0.296875,7 1,8.29688 C2.79688,11.5938 6.59375,13.2969 11.2031,13.2969 C14.5938,13.2969 18.2969,12.4063 21.9063,10.5 C28.5,7 32.5,1.09375 32.5,-4 C32.5,-5.40625 32.2031,-6.79688 31.5,-8.09375"/>
<path class="Note" transform="matrix(0.992126,0,0,0.992126,1842.89,733.465)" d="M31.5,-8.09375 C29.7031,-11.4063 25.9063,-13.2031 21.2969,-13.2031 C17.9063,-13.2031 14.2031,-12.2031 10.5938,-10.2969 C4,-6.79688 0,-0.90625 0,4.20313 C0,5.59375 0.296875,7 1,8.29688 C2.79688,11.5938 6.59375,13.2969 11.2031,13.2969 C14.5938,13.2969 18.2969,12.4063 21.9063,10.5 C28.5,7 32.5,1.09375 32.5,-4 C32.5,-5.40625 32.2031,-6.79688 31.5,-8.09375"/>
<path class="Note" transform="matrix(0.992126,0,0,0.992126,1907.35,745.866)" d="M31.5,-8.09375 C29.7031,-11.4063 25.9063,-13.2031 21.2969,-13.2031 C17.9063,-13.2031 14.2031,-12.2031 10.5938,-10.2969 C4,-6.79688 0,-0.90625 0,4.20313 C0,5.59375 0.296875,7 1,8.29688 C2.79688,11.5938 6.59375,13.2969 11.2031,13.2969 C14.5938,13.2969 18.2969,12.4063 21.9063,10.5 C28.5,7 32.5,1.09375 32.5,-4 C32.5,-5.40625 32.2031,-6.79688 31.5,-8.09375"/>
<path class="Note" transform="matrix(0.992126,0,0,0.992126,1971.81,745.866)" d="M31.5,-8.09375 C29.7031,-11.4063 25.9063,-13.2031 21.2969,-13.2031 C17.9063,-13.2031 14.2031,-12.2031 10.5938,-10.2969 C4,-6.79688 0,-0.90625 0,4.20313 C0,5.59375 0.296875,7 1,8.29688 C2.79688,11.5938 6.59375,13.2969 11.2031,13.2969 C14.5938,13.2969 18.2969,12.4063 21.9063,10.5 C28.5,7 32.5,1.09375 32.5,-4 C32.5,-5.40625 32.2031,-6.79688 31.5,-8.09375"/>
<path class="Note" transform="matrix(0.992126,0,0,0.992126,2077.96,745.866)" d="M31.5,-8.09375 C29.7031,-11.4063 25.9063,-13.2031 21.2969,-13.2031 C17.9063,-13.2031 14.2031,-12.2031 10.5938,-10.2969 C4,-6.79688 0,-0.90625 0,4.20313 C0,5.59375 0.296875,7 1,8.29688 C2.79688,11.5938 6.59375,13.2969 11.2031,13.2969 C14.5938,13.2969 18.2969,12.4063 21.9063,10.5 C28.5,7 32.5,1.09375 32.5,-4 C32.5,-5.40625 32.2031,-6.79688 31.5,-8.09375"/>
<path class="Note" transform="matrix(0.992126,0,0,0.992126,2170.98,733.465)" d="M31.5,-8.09375 C29.7031,-11.4063 25.9063,-13.2031 21.2969,-13.2031 C17.9063,-13.2031 14.2031,-12.2031 10.5938,-10.2969 C4,-6.79688 0,-0.90625 0,4.20313 C0,5.59375 0.296875,7 1,8.29688 C2.79688,11.5938 6.59375,13.2969 11.2031,13.2969 C14.5938,13.2969 18.2969,12.4063 21.9063,10.5 C28.5,7 32.5,1.09375 32.5,-4 C32.5,-5.40625 32.2031,-6.79688 31.5,-8.09375"/>
<path class="Note" transform="matrix(0.992126,0,0,0.992126,2229.12,708.661)" d="M31.5,-8.09375 C29.7031,-11.4063 25.9063,-13.2031 21.2969,-13.2031 C17.9063,-13.2031 14.2031,-12.2031 10.5938,-10.2969 C4,-6.79688 0,-0.90625 0,4.20313 C0,5.59375 0.296875,7 1,8.29688 C2.79688,11.5938 6.59375,13.2969 11.2031,13.2969 C14.5938,13.2969 18.2969,12.4063 21.9063,10.5 C28.5,7 32.5,1.09375 32.5,-4 C32.5,-5.40625 32.2031,-6.79688 31.5,-8.09375"/>
<path class="Note" transform="matrix(0.992126,0,0,0.992126,2287.26,721.063)" d="M31.5,-8.09375 C29.7031,-11.4063 25.9063,-13.2031 21.2969,-13.2031 C17.9063,-13.2031 14.2031,-12.2031 10.5938,-10.2969 C4,-6.79688 0,-0.90625 0,4.20313 C0,5.59375 0.296875,7 1,8.29688 C2.79688,11.5938 6.59375,13.2969 11.2031,13.2969 C14.5938,13.2969 18.2969,12.4063 21.9063,10.5 C28.5,7 32.5,1.09375 32.5,-4 C32.5,-5.40625 32.2031,-6.79688 31.5,-8.09375"/>
<path class="Note" transform="matrix(0.992126,0,0,0.992126,2409.8,708.661)" d="M31.5,-8.09375 C29.7031,-11.4063 25.9063,-13.2031 21.2969,-13.2031 C17.9063,-13.2031 14.2031,-12.2031 10.5938,-10.2969 C4,-6.79688 0,-0.90625 0,4.20313 C0,5.59375 0.296875,7 1,8.29688 C2.79688,11.5938 6.59375,13.2969 11.2031,13.2969 C14.5938,13.2969 18.2969,12.4063 21.9063,10.5 C28.5,7 32.5,1.09375 32.5,-4 C32.5,-5.40625 32.2031,-6.79688 31.5,-8.09375"/>
<path class="Note" transform="matrix(0.992126,0,0,0.992126,2547.84,696.26)" d="M18.7031,-13.5938 C4.90625,-13.5938 0,-6.59375 0,-0.09375 C0,6.40625 4.90625,13.4063 18.7031,13.4063 C32.5,13.4063 37.2969,6.40625 37.2969,-0.09375 C37.2969,-6.59375 32.5,-13.5938 18.7031,-13.5938 M10.4063,-4.5 C10.2969,-4.90625 10.2969,-5.29688 10.2969,-5.70313 C10.2969,-6.5 10.5,-7.29688 10.9063,-8 C11.5938,-9 12.7969,-9.70313 14.2969,-10 C15.5938,-10.2969 16.2969,-10.5 18.9063,-10.5 L19,-10.5 C23,-10.5 24.2969,-6.79688 25.4063,-3 L25.7031,-2 C26.5,0.59375 26.9063,2.79688 26.9063,4.5 C26.9063,5.70313 26.7031,6.79688 26.2969,7.59375 C25.7031,8.70313 24.7031,9.40625 23,9.79688 C22.0938,10 20.5938,10.0938 20.5938,10.0938 C20.0938,10.0938 19.7031,10.2031 19.2969,10.2031 C16.0938,10.2031 14.0938,9 12.7031,4.70313 C11.5,1 11.2969,-0.09375 10.4063,-4.5"/>
<path class="Note" transform="matrix(0.992126,0,0,0.992126,746.485,733.465)" d="M31.5,-8.09375 C29.7031,-11.4063 25.9063,-13.2031 21.2969,-13.2031 C17.9063,-13.2031 14.2031,-12.2031 10.5938,-10.2969 C4,-6.79688 0,-0.90625 0,4.20313 C0,5.59375 0.296875,7 1,8.29688 C2.79688,11.5938 6.59375,13.2969 11.2031,13.2969 C14.5938,13.2969 18.2969,12.4063 21.9063,10.5 C28.5,7 32.5,1.09375 32.5,-4 C32.5,-5.40625 32.2031,-6.79688 31.5,-8.09375"/>
<path class="Note" transform="matrix(0.992126,0,0,0.992126,916.215,721.063)" d="M31.5,-8.09375 C29.7031,-11.4063 25.9063,-13.2031 21.2969,-13.2031 C17.9063,-13.2031 14.2031,-12.2031 10.5938,-10.2969 C4,-6.79688 0,-0.90625 0,4.20313 C0,5.59375 0.296875,7 1,8.29688 C2.79688,11.5938 6.59375,13.2969 11.2031,13.2969 C14.5938,13.2969 18.2969,12.4063 21.9063,10.5 C28.5,7 32.5,1.09375 32.5,-4 C32.5,-5.40625 32.2031,-6.79688 31.5,-8.09375"/>
<path class="Note" transform="matrix(0.992126,0,0,0.992126,1030.51,696.26)" d="M31.5,-8.09375 C29.7031,-11.4063 25.9063,-13.2031 21.2969,-13.2031 C17.9063,-13.2031 14.2031,-12.2031 10.5938,-10.2969 C4,-6.79688 0,-0.90625 0,4.20313 C0,5.59375 0.296875,7 1,8.29688 C2.79688,11.5938 6.59375,13.2969 11.2031,13.2969 C14.5938,13.2969 18.2969,12.4063 21.9063,10.5 C28.5,7 32.5,1.09375 32.5,-4 C32.5,-5.40625 32.2031,-6.79688 31.5,-8.09375"/>
<path class="Note" transform="matrix(0.992126,0,0,0.992126,1269.59,708.661)" d="M31.5,-8.09375 C29.7031,-11.4063 25.9063,-13.2031 21.2969,-13.2031 C17.9063,-13.2031 14.2031,-12.2031 10.5938,-10.2969 C4,-6.79688 0,-0.90625 0,4.20313 C0,5.59375 0.296875,7 1,8.29688 C2.79688,11.5938 6.59375,13.2969 11.2031,13.2969 C14.5938,13.2969 18.2969,12.4063 21.9063,10.5 C28.5,7 32.5,1.09375 32.5,-4 C32.5,-5.40625 32.2031,-6.79688 31.5,-8.09375"/>
<path class="Note" transform="matrix(0.992126,0,0,0.992126,1341.02,696.26)" d="M31.5,-8.09375 C29.7031,-11.4063 25.9063,-13.2031 21.2969,-13.2031 C17.9063,-13.2031 14.2031,-12.2031 10.5938,-10.2969 C4,-6.79688 0,-0.90625 0,4.20313 C0,5.59375 0.296875,7 1,8.29688 C2.79688,11.5938 6.59375,13.2969 11.2031,13.2969 C14.5938,13.2969 18.2969,12.4063 21.9063,10.5 C28.5,7 32.5,1.09375 32.5,-4 C32.5,-5.40625 32.2031,-6.79688 31.5,-8.09375"/>
<path class="Note" transform="matrix(0.992126,0,0,0.992126,1412.45,708.661)" d="M31.5,-8.09375 C29.7031,-11.4063 25.9063,-13.2031 21.2969,-13.2031 C17.9063,-13.2031 14.2031,-12.2031 10.5938,-10.2969 C4,-6.79688 0,-0.90625 0,4.20313 C0,5.59375 0.296875,7 1,8.29688 C2.79688,11.5938 6.59375,13.2969 11.2031,13.2969 C14.5938,13.2969 18.2969,12.4063 21.9063,10.5 C28.5,7 32.5,1.09375 32.5,-4 C32.5,-5.40625 32.2031,-6.79688 31.5,-8.09375"/>
<path class="Note" transform="matrix(0.992126,0,0,0.992126,1520.6,659.055)" d="M31.5,-8.09375 C29.7031,-11.4063 25.9063,-13.2031 21.2969,-13.2031 C17.9063,-13.2031 14.2031,-12.2031 10.5938,-10.2969 C4,-6.79688 0,-0.90625 0,4.20313 C0,5.59375 0.296875,7 1,8.29688 C2.79688,11.5938 6.59375,13.2969 11.2031,13.2969 C14.5938,13.2969 18.2969,12.4063 21.9063,10.5 C28.5,7 32.5,1.09375 32.5,-4 C32.5,-5.40625 32.2031,-6.79688 31.5,-8.09375"/>
<path class="Note" transform="matrix(0.992126,0,0,0.992126,1649.51,683.858)" d="M31.5,-8.09375 C29.7031,-11.4063 25.9063,-13.2031 21.2969,-13.2031 C17.9063,-13.2031 14.2031,-12.2031 10.5938,-10.2969 C4,-6.79688 0,-0.90625 0,4.20313 C0,5.59375 0.296875,7 1,8.29688 C2.79688,11.5938 6.59375,13.2969 11.2031,13.2969 C14.5938,13.2969 18.2969,12.4063 21.9063,10.5 C28.5,7 32.5,1.09375 32.5,-4 C32.5,-5.40625 32.2031,-6.79688 31.5,-8.09375"/>
<path class="Note" transform="matrix(0.992126,0,0,0.992126,1842.89,696.26)" d="M31.5,-8.09375 C29.7031,-11.4063 25.9063,-13.2031 21.2969,-13.2031 C17.9063,-13.2031 14.2031,-12.2031 10.5938,-10.2969 C4,-6.79688 0,-0.90625 0,4.20313 C0,5.59375 0.296875,7 1,8.29688 C2.79688,11.5938 6.59375,13.2969 11.2031,13.2969 C14.5938,13.2969 18.2969,12.4063 21.9063,10.5 C28.5,7 32.5,1.09375 32.5,-4 C32.5,-5.40625 32.2031,-6.79688 31.5,-8.09375"/>
<path class="Note" transform="matrix(0.992126,0,0,0.992126,1907.35,683.858)" d="M31.5,-8.09375 C29.7031,-11.4063 25.9063,-13.2031 21.2969,-13.2031 C17.9063,-13.2031 14.2031,-12.2031 10.5938,-10.2969 C4,-6.79688 0,-0.90625 0,4.20313 C0,5.59375 0.296875,7 1,8.29688 C2.79688,11.5938 6.59375,13.2969 11.2031,13.2969 C14.5938,13.2969 18.2969,12.4063 21.9063,10.5 C28.5,7 32.5,1.09375 32.5,-4 C32.5,-5.40625 32.2031,-6.79688 31.5,-8.09375"/>
<path class="Note" transform="matrix(0.992126,0,0,0.992126,1971.81,671.457)" d="M31.5,-8.09375 C29.7031,-11.4063 25.9063,-13.2031 21.2969,-13.2031 C17.9063,-13.2031 14.2031,-12.2031 10.5938,-10.2969 C4,-6.79688 0,-0.90625 0,4.20313 C0,5.59375 0.296875,7 1,8.29688 C2.79688,11.5938 6.59375,13.2969 11.2031,13.2969 C14.5938,13.2969 18.2969,12.4063 21.9063,10.5 C28.5,7 32.5,1.09375 32.5,-4 C32.5,-5.40625 32.2031,-6.79688 31.5,-8.09375"/>
<path class="Note" transform="matrix(0.992126,0,0,0.992126,2077.96,659.055)" d="M31.5,-8.14063 C29.7031,-11.4375 25.9063,-13.2344 21.2969,-13.2344 C17.9063,-13.2344 14.2031,-12.2344 10.5938,-10.3438 C4,-6.84375 0,-0.9375 0,4.15625 C0,5.5625 0.296875,6.96875 1,8.26563 C2.79688,11.5781 6.59375,13.2813 11.2031,13.2813 C14.5938,13.2813 18.2969,12.375 21.9063,10.4844 C28.5,6.96875 32.5,1.0625 32.5,-4.04688 C32.5,-5.4375 32.2031,-6.84375 31.5,-8.14063 M27.2031,-1.34375 C25.5,0.359375 22.0938,2.45313 18.5,4.46875 C14.9063,6.46875 11.2969,7.96875 8.90625,8.46875 C8.40625,8.57813 7.90625,8.67188 7.40625,8.67188 C5.79688,8.67188 4.59375,8.07813 3.90625,6.76563 C3.59375,6.26563 3.40625,5.67188 3.40625,5.0625 C3.40625,3.96875 4.09375,2.65625 5.20313,1.5625 C6.90625,-0.140625 10.2031,-2.23438 13.7969,-4.23438 C17.4063,-6.23438 21,-7.73438 23.4063,-8.23438 C23.9063,-8.34375 24.4063,-8.4375 24.9063,-8.4375 C26.5,-8.4375 27.7969,-7.84375 28.5,-6.54688 C28.7969,-6.04688 28.9063,-5.4375 28.9063,-4.84375 C28.9063,-3.73438 28.2969,-2.54688 27.2031,-1.34375"/>
<path class="Note" transform="matrix(0.992126,0,0,0.992126,2287.26,646.654)" d="M31.5,-8.14063 C29.7031,-11.4375 25.9063,-13.2344 21.2969,-13.2344 C17.9063,-13.2344 14.2031,-12.2344 10.5938,-10.3438 C4,-6.84375 0,-0.9375 0,4.15625 C0,5.5625 0.296875,6.96875 1,8.26563 C2.79688,11.5781 6.59375,13.2813 11.2031,13.2813 C14.5938,13.2813 18.2969,12.375 21.9063,10.4844 C28.5,6.96875 32.5,1.0625 32.5,-4.04688 C32.5,-5.4375 32.2031,-6.84375 31.5,-8.14063 M27.2031,-1.34375 C25.5,0.359375 22.0938,2.45313 18.5,4.46875 C14.9063,6.46875 11.2969,7.96875 8.90625,8.46875 C8.40625,8.57813 7.90625,8.67188 7.40625,8.67188 C5.79688,8.67188 4.59375,8.07813 3.90625,6.76563 C3.59375,6.26563 3.40625,5.67188 3.40625,5.0625 C3.40625,3.96875 4.09375,2.65625 5.20313,1.5625 C6.90625,-0.140625 10.2031,-2.23438 13.7969,-4.23438 C17.4063,-6.23438 21,-7.73438 23.4063,-8.23438 C23.9063,-8.34375 24.4063,-8.4375 24.9063,-8.4375 C26.5,-8.4375 27.7969,-7.84375 28.5,-6.54688 C28.7969,-6.04688 28.9063,-5.4375 28.9063,-4.84375 C28.9063,-3.73438 28.2969,-2.54688 27.2031,-1.34375"/>
<path class="Note" transform="matrix(0.992126,0,0,0.992126,2547.84,659.055)" d="M18.7031,-13.5938 C4.90625,-13.5938 0,-6.59375 0,-0.09375 C0,6.40625 4.90625,13.4063 18.7031,13.4063 C32.5,13.4063 37.2969,6.40625 37.2969,-0.09375 C37.2969,-6.59375 32.5,-13.5938 18.7031,-13.5938 M10.4063,-4.5 C10.2969,-4.90625 10.2969,-5.29688 10.2969,-5.70313 C10.2969,-6.5 10.5,-7.29688 10.9063,-8 C11.5938,-9 12.7969,-9.70313 14.2969,-10 C15.5938,-10.2969 16.2969,-10.5 18.9063,-10.5 L19,-10.5 C23,-10.5 24.2969,-6.79688 25.4063,-3 L25.7031,-2 C26.5,0.59375 26.9063,2.79688 26.9063,4.5 C26.9063,5.70313 26.7031,6.79688 26.2969,7.59375 C25.7031,8.70313 24.7031,9.40625 23,9.79688 C22.0938,10 20.5938,10.0938 20.5938,10.0938 C20.0938,10.0938 19.7031,10.2031 19.2969,10.2031 C16.0938,10.2031 14.0938,9 12.7031,4.70313 C11.5,1 11.2969,-0.09375 10.4063,-4.5"/>
<path class="Note" transform="matrix(0.992126,0,0,0.992126,619.324,745.866)" d="M31.5,-8.09375 C29.7031,-11.4063 25.9063,-13.2031 21.2969,-13.2031 C17.9063,-13.2031 14.2031,-12.2031 10.5938,-10.2969 C4,-6.79688 0,-0.90625 0,4.20313 C0,5.59375 0.296875,7 1,8.29688 C2.79688,11.5938 6.59375,13.2969 11.2031,13.2969 C14.5938,13.2969 18.2969,12.4063 21.9063,10.5 C28.5,7 32.5,1.09375 32.5,-4 C32.5,-5.40625 32.2031,-6.79688 31.5,-8.09375"/>
<path class="Clef" transform="matrix(0.992126,0,0,0.992126,356.457,708.661)" d="M63.3594,-5.92188 C62.125,-11.3438 59.4844,-15.1719 58.7031,-16.2031 C55.5156,-20.4844 51.5,-23.3281 46.8125,-24.6875 C43.7031,-25.5625 40.7031,-25.6875 38.2813,-25.5 C37.2344,-31.5156 36.2344,-37.3906 35.3281,-42.8438 C40.7813,-49.0156 44.4063,-54.8125 46.6875,-59.1094 C50.1563,-65.6875 51.2969,-70.2656 51.3594,-70.4688 C53.0781,-75.6875 53.4375,-83.3906 52.3281,-91.5938 C51.3281,-99.1406 49.2344,-105.859 46.875,-109.109 C45.8594,-110.531 44.7969,-111.266 43.7656,-111.266 C42.5469,-111.266 40.0313,-110.031 37.1406,-107.25 C34.8438,-105.063 31.5781,-101.172 29.0156,-95.1563 C26.0156,-88.0938 25.7969,-78.6094 26.1563,-71.8906 C26.5313,-64.6094 27.6406,-58.9219 27.6563,-58.875 C27.6719,-58.7813 27.9375,-57.2813 28.375,-54.7188 C28.1563,-54.4844 27.9063,-54.2656 27.6563,-54.0156 C26.625,-53.0156 25.4375,-51.8906 24.0469,-50.5 C23.1875,-49.6406 22.2344,-48.7344 21.2344,-47.7656 C12.7969,-39.625 0,-27.2969 0,-8.14063 C0,-3.4375 0.90625,0.984375 2.6875,5 C4.26563,8.59375 6.5625,11.875 9.5,14.75 C17.2344,22.3125 27.8281,25.5156 34.875,25.3594 C37.8281,25.2813 40.4688,25.0469 42.8594,24.5938 C44.6875,34.2031 45.8281,41.2344 45.8594,46.5781 C45.9063,53.0938 44.25,57.0781 40.3594,59.8438 C37.9219,61.5781 35.1094,62.5313 32.0156,62.6719 C29.4219,62.7969 27.1563,62.3281 25.7344,61.9219 L25.7188,61.9219 C25.7188,61.9219 25.4375,61.8281 25.4219,61.6406 C25.4063,61.4531 25.7656,61.4063 25.7656,61.4063 L25.7969,61.4063 C27.7188,60.9688 31.2813,59.7344 33.6406,56.4375 C35.4375,53.9063 36.3125,49.2813 34.4688,45.3438 C33.3594,42.9531 30.8594,40 25.2344,39.5469 C22.7344,39.3438 20.4688,39.8594 18.4688,41.0625 C16.6563,42.1406 15.1563,43.7813 14.1094,45.7813 C11.6563,50.4844 12.1094,56.2188 15.2344,60.0625 C18.2031,63.6875 22.8125,66 28.25,66.5781 C29.1094,66.6719 29.9531,66.7031 30.7969,66.7031 C35.2344,66.7031 39.625,65.5 43.2031,63.2969 C46.8594,60.7188 48.9844,56.7344 49.6563,51.1094 C50.2188,46.4688 49.8281,40.5469 48.4375,32.4688 C48.0781,30.375 47.5313,27.3438 46.875,23.5938 C52.625,21.6719 56.7813,18.0938 60.5469,12.2344 C63.8438,6.5 64.7813,0.390625 63.3594,-5.92188 M29.1406,20.2969 C24.5,19.0781 20.0625,16.5781 16.3125,13.0625 C15,11.8438 13.125,9.67188 11.6563,6.28125 C10.2969,3.10938 9.625,-0.328125 9.6875,-3.90625 C9.75,-8.60938 11.0625,-13.4375 13.5625,-18.2188 C16.4844,-23.7969 21.0469,-29.3281 27.1094,-34.6563 C28.5625,-35.9375 29.9375,-37.2188 31.2188,-38.5 C31.9844,-34.2344 32.8125,-29.5469 33.6875,-24.6719 C29.8438,-23.4063 25.0938,-20.25 21.9844,-14.5938 C18.4375,-8.03125 18.5781,-2.5 19.3125,0.984375 C20.25,5.4375 22.7813,9.20313 26.2344,11.2969 C27.1719,11.8594 31.2969,13.9844 33.1406,13.4063 C33.5156,13.2969 33.7813,13.0625 33.9219,12.7344 C34.4375,11.5625 33.4063,10.9219 31.8594,9.96875 C31.25,9.59375 30.5781,9.17188 29.8594,8.64063 C26.5313,6.15625 25.0781,1.70313 26.1563,-2.6875 C26.7344,-5.07813 28.0156,-7.25 29.8594,-8.95313 C31.5156,-10.5 33.5625,-11.5938 35.9375,-12.2344 C37.9844,-0.984375 40.0469,10.1719 41.6875,18.5313 C41.8125,19.2188 41.9531,19.8906 42.0781,20.5625 C37.7031,21.5 33.3594,21.4063 29.1406,20.2969 M40.4688,-12.9063 C50.8125,-13.375 55.0781,-5.9375 55.9688,-1.10938 C56.4375,1.4375 56.4375,5.875 54.8906,10.0938 C53.7188,13.2656 51.2656,17.3438 46.125,19.4063 C46.0625,18.9844 45.9844,18.5469 45.9063,18.125 C44.3594,9.34375 42.4219,-1.65625 40.4688,-12.9063 M33.1406,-83.8594 C34.9219,-89.5938 37.6563,-92.8438 39.6563,-94.5781 C41.4063,-96.0938 43.0469,-96.8125 43.9688,-96.8125 C44.1094,-96.8125 44.2344,-96.7813 44.3281,-96.75 C44.7969,-96.6094 45.3281,-96.0469 45.7969,-95.1719 C48.1094,-90.8906 47.3594,-84.1719 46.0156,-79.7344 C44.3906,-74.3281 41.4688,-68.7188 32.6719,-59.1094 C32.5,-60.2188 32.3438,-61.2656 32.1875,-62.25 C30.9375,-70.5313 31.2656,-77.8125 33.1406,-83.8594"/>
<path class="KeySig" transform="matrix(0.992126,0,0,0.992126,469.544,671.457)" d="M23.2969,-10.5938 C23.9063,-10.7031 24.4063,-11.4063 24.4063,-12 L24.4063,-17.9063 C24.4063,-18.7031 23.7969,-19.2969 23,-19.2969 L22.7969,-19.2969 L19.5,-18.5938 L19.5,-33.5 L16.7031,-33.5 L16.7031,-18 L7.79688,-16.2031 L7.79688,-30.2969 L5,-30.2969 L5,-15.5938 L1.09375,-14.7969 C0.5,-14.7031 0,-14 0,-13.4063 L0,-13.2031 L0,-7.40625 L0,-7.59375 C0,-6.79688 0.59375,-6.20313 1.40625,-6.20313 L1.70313,-6.20313 L5,-6.90625 L5,9.59375 L1.09375,10.4063 C0.5,10.5 0,11.2031 0,11.7969 L0,17.5938 C0,18.4063 0.59375,19 1.40625,19 L1.70313,19 L5,18.2969 L5,33.2031 L7.79688,33.2031 L7.79688,17.7031 L16.7031,15.9063 L16.7031,30 L19.5,30 L19.5,15.2969 L23.2969,14.5938 C23.9063,14.5 24.4063,13.7969 24.4063,13.2031 L24.4063,7.29688 C24.4063,6.5 23.7969,5.90625 23,5.90625 L22.7969,5.90625 L19.5,6.59375 L19.5,-9.90625 L23.2969,-10.5938 M7.79688,9.09375 L7.79688,-7.5 L16.7031,-9.29688 L16.7031,7.20313 L7.79688,9.09375 "/>
<path class="KeySig" transform="matrix(0.992126,0,0,0.992126,444.74,634.252)" d="M23.2969,-10.5938 C23.9063,-10.7031 24.4063,-11.4063 24.4063,-12 L24.4063,-17.9063 C24.4063,-18.7031 23.7969,-19.2969 23,-19.2969 L22.7969,-19.2969 L19.5,-18.5938 L19.5,-33.5 L16.7031,-33.5 L16.7031,-18 L7.79688,-16.2031 L7.79688,-30.2969 L5,-30.2969 L5,-15.5938 L1.09375,-14.7969 C0.5,-14.7031 0,-14 0,-13.4063 L0,-13.2031 L0,-7.40625 L0,-7.59375 C0,-6.79688 0.59375,-6.20313 1.40625,-6.20313 L1.70313,-6.20313 L5,-6.90625 L5,9.59375 L1.09375,10.4063 C0.5,10.5 0,11.2031 0,11.7969 L0,17.5938 C0,18.4063 0.59375,19 1.40625,19 L1.70313,19 L5,18.2969 L5,33.2031 L7.79688,33.2031 L7.79688,17.7031 L16.7031,15.9063 L16.7031,30 L19.5,30 L19.5,15.2969 L23.2969,14.5938 C23.9063,14.5 24.4063,13.7969 24.4063,13.2031 L24.4063,7.29688 C24.4063,6.5 23.7969,5.90625 23,5.90625 L22.7969,5.90625 L19.5,6.59375 L19.5,-9.90625 L23.2969,-10.5938 M7.79688,9.09375 L7.79688,-7.5 L16.7031,-9.29688 L16.7031,7.20313 L7.79688,9.09375 "/>
<path class="TimeSig" transform="matrix(0.992126,0,0,0.992126,517.189,659.187)" d="M3.59375,12.625 L20.7656,12.625 L20.7656,20.0781 L12.5469,20.0781 C11.7656,20.0781 11.125,20.7031 11.125,21.4844 L11.125,23.3906 C11.125,24.1719 11.7656,24.7969 12.5469,24.7969 L42.7969,24.7969 C43.5781,24.7969 44.2031,24.1719 44.2031,23.3906 L44.2031,21.4844 C44.2031,20.7031 43.5781,20.0781 42.7969,20.0781 L33.8594,20.0781 L33.8594,12.625 L42.7969,12.625 C43.5781,12.625 44.2031,12 44.2031,11.2188 L44.2031,9.3125 C44.2031,8.53125 43.5781,7.90625 42.7969,7.90625 L33.8594,7.90625 L33.8594,-8.0625 C33.8594,-8.59375 33.5469,-9.07813 33.0781,-9.3125 L31.8594,-9.92188 C31.3281,-10.1719 30.7031,-10.0781 30.2656,-9.6875 L21.2188,-1.375 C20.9375,-1.09375 20.7656,-0.734375 20.7656,-0.328125 L20.7656,7.90625 L9.25,7.90625 C9.25,7.90625 20.375,-4.125 32.2188,-19.8906 C33.0781,-21.0469 32.5781,-22.0938 32.3906,-22.2813 L30.2188,-24.4844 C29.9531,-24.75 29.5938,-24.9063 29.2188,-24.9063 C28.625,-24.9063 15.0625,-24.875 14.3438,-24.9063 C13.625,-24.9219 13.0938,-24.2969 13.0156,-23.6875 C13.0156,-23.6875 12.4844,-16.3281 9.875,-8.1875 C7.28125,-0.078125 4.34375,4.90625 1.6875,8.53125 C1.6875,8.53125 1.14063,9.51563 1.5,10.2656 C1.84375,11.0156 2.48438,12.0938 2.48438,12.0938 C2.48438,12.0938 2.73438,12.625 3.59375,12.625"/>
<path class="TimeSig" transform="matrix(0.992126,0,0,0.992126,517.189,708.53)" d="M3.59375,12.625 L20.7656,12.625 L20.7656,20.0781 L12.5469,20.0781 C11.7656,20.0781 11.125,20.7031 11.125,21.4844 L11.125,23.3906 C11.125,24.1719 11.7656,24.7969 12.5469,24.7969 L42.7969,24.7969 C43.5781,24.7969 44.2031,24.1719 44.2031,23.3906 L44.2031,21.4844 C44.2031,20.7031 43.5781,20.0781 42.7969,20.0781 L33.8594,20.0781 L33.8594,12.625 L42.7969,12.625 C43.5781,12.625 44.2031,12 44.2031,11.2188 L44.2031,9.3125 C44.2031,8.53125 43.5781,7.90625 42.7969,7.90625 L33.8594,7.90625 L33.8594,-8.0625 C33.8594,-8.59375 33.5469,-9.07813 33.0781,-9.3125 L31.8594,-9.92188 C31.3281,-10.1719 30.7031,-10.0781 30.2656,-9.6875 L21.2188,-1.375 C20.9375,-1.09375 20.7656,-0.734375 20.7656,-0.328125 L20.7656,7.90625 L9.25,7.90625 C9.25,7.90625 20.375,-4.125 32.2188,-19.8906 C33.0781,-21.0469 32.5781,-22.0938 32.3906,-22.2813 L30.2188,-24.4844 C29.9531,-24.75 29.5938,-24.9063 29.2188,-24.9063 C28.625,-24.9063 15.0625,-24.875 14.3438,-24.9063 C13.625,-24.9219 13.0938,-24.2969 13.0156,-23.6875 C13.0156,-23.6875 12.4844,-16.3281 9.875,-8.1875 C7.28125,-0.078125 4.34375,4.90625 1.6875,8.53125 C1.6875,8.53125 1.14063,9.51563 1.5,10.2656 C1.84375,11.0156 2.48438,12.0938 2.48438,12.0938 C2.48438,12.0938 2.73438,12.625 3.59375,12.625"/>
<path class="Articulation" transform="matrix(0.992126,0,0,0.992126,1027.18,622.218)" d="M47.2969,-19.5 L44.9063,-21 L39,-11.5 L31,-24.0938 C30.7969,-24.5 30.2031,-24.7969 29.7969,-24.7969 C29.4063,-24.7969 28.9063,-24.5 28.7031,-24.0938 L25.2031,-18.2031 L25.2031,-30.2031 C25.2031,-31 24.5938,-31.6094 23.7969,-31.6094 L23,-31.6094 C22.2031,-31.6094 21.5938,-31 21.5938,-30.2031 L21.5938,-12 L21.5,-11.9063 L14.0938,-24.0938 C13.9063,-24.5 13.2969,-24.7969 12.9063,-24.7969 C12.5,-24.7969 11.9063,-24.5 11.7031,-24.0938 L0,-4.79688 L2.40625,-3.29688 L8.29688,-13.0938 L15.7031,-0.703125 C15.9063,-0.296875 16.5,0 16.9063,0 C17.2969,0 17.9063,-0.296875 18.0938,-0.703125 L21.5938,-6.59375 L21.5938,6.29688 C21.5938,7.09375 22.2031,7.70313 23,7.70313 L23.7969,7.70313 C24.5938,7.70313 25.2031,7.09375 25.2031,6.29688 L25.2031,-12.7969 L25.4063,-13.0938 L33.2031,-0.703125 C33.4063,-0.296875 34,0 34.4063,0 C34.7969,0 35.4063,-0.296875 35.6094,-0.703125 L47.2969,-19.5 "/>
<path class="Articulation" transform="matrix(0.992126,0,0,0.992126,1517.12,612.371)" d="M32.2031,-27.5 C28.2969,-27.5 26.1094,-24.9063 26.1094,-24.9063 L25.2969,-25.7031 C24.7969,-26.2031 24,-26.2031 24,-26.2031 L13.7031,-26.2031 L17.0938,-36.7031 C17.2969,-37.4063 16.5,-38.2969 15.7031,-38.2969 L14.7969,-38.2969 C14.5,-38.2969 14,-38 13.7969,-37.7969 C13.5938,-37.6094 9,-33.7969 8.59375,-33.5 C8.20313,-33.2031 8.09375,-32.7031 8.09375,-32.7031 C8.09375,-32.7031 7.09375,-29.9063 5.79688,-26.2031 L0.203125,-26.2031 C-1,-26.2031 -1.20313,-25 -1.20313,-25 L-1.20313,-23.7031 C-1.20313,-22.5938 0.203125,-22.5 0.203125,-22.5 L4.59375,-22.5 C2.40625,-15.9063 0,-8.09375 0,-5.90625 C0,-1.09375 3.29688,0 6.40625,0 C9.5,0 12.9063,-2.40625 12.9063,-2.40625 C12.9063,-2.40625 13.2031,-1.70313 13.5,-0.90625 C13.7969,-0.09375 14.7031,0 14.7031,0 L19.2031,0 C20.5,0 20.7031,-1.09375 20.7031,-1.09375 L20.7031,-3 C20.7031,-5.20313 22.2969,-10.2031 22.2969,-10.2031 L26.5,-19.7031 C26.5,-19.7031 27.5,-21.5938 28.6094,-22.5938 C29.7031,-23.5 30.9063,-23.9063 31.4063,-23.5938 C30,-22.7031 29.7031,-21.2031 29.7031,-20 C29.7031,-18.7969 31,-16.2031 33.7031,-16.2031 C37.1094,-16.2031 38.2969,-18.2969 38.2969,-21.4063 C38.2969,-24.5 36.1094,-27.5 32.2031,-27.5 M15.4063,-9.90625 C14.5938,-7.20313 11.9063,-5.40625 10.2031,-5.40625 C9.90625,-5.40625 9.70313,-5.40625 9.5,-5.5 C8.70313,-5.90625 8.40625,-6.90625 8.40625,-8 C8.40625,-10.2969 9.5,-13.2031 9.5,-13.2031 L12.5,-22.5 L19.0938,-22.5 C19.4063,-22.5 19.4063,-22.2031 19.4063,-22.2031 C19.4063,-22.2031 16.2969,-13 15.4063,-9.90625"/>
<path class="Articulation" transform="matrix(0.992126,0,0,0.992126,2281.93,605.076)" d="M47.2969,-19.5 L44.9063,-21 L39,-11.5 L31,-24.0938 C30.7969,-24.5 30.2031,-24.7969 29.7969,-24.7969 C29.4063,-24.7969 28.9063,-24.5 28.7031,-24.0938 L25.2031,-18.2031 L25.2031,-30.2031 C25.2031,-31 24.5938,-31.6094 23.7969,-31.6094 L23,-31.6094 C22.2031,-31.6094 21.5938,-31 21.5938,-30.2031 L21.5938,-12 L21.5,-11.9063 L14.0938,-24.0938 C13.9063,-24.5 13.2969,-24.7969 12.9063,-24.7969 C12.5,-24.7969 11.9063,-24.5 11.7031,-24.0938 L0,-4.79688 L2.40625,-3.29688 L8.29688,-13.0938 L15.7031,-0.703125 C15.9063,-0.296875 16.5,0 16.9063,0 C17.2969,0 17.9063,-0.296875 18.0938,-0.703125 L21.5938,-6.59375 L21.5938,6.29688 C21.5938,7.09375 22.2031,7.70313 23,7.70313 L23.7969,7.70313 C24.5938,7.70313 25.2031,7.09375 25.2031,6.29688 L25.2031,-12.7969 L25.4063,-13.0938 L33.2031,-0.703125 C33.4063,-0.296875 34,0 34.4063,0 C34.7969,0 35.4063,-0.296875 35.6094,-0.703125 L47.2969,-19.5 "/>
<path class="Beam" fill-rule="evenodd" d="M619.324,851.227 L812.793,826.069 L812.793,838.575 L619.324,863.733 L619.324,851.227 "/>
<path class="Beam" fill-rule="evenodd" d="M619.324,832.625 L812.793,807.467 L812.793,819.973 L619.324,845.131 L619.324,832.625 "/>
<path class="Beam" fill-rule="evenodd" d="M1030.51,826.453 L1104.67,820.015 L1104.67,832.464 L1030.51,838.901 L1030.51,826.453 "/>
<path class="Beam" fill-rule="evenodd" d="M1202.88,807.637 L1272.32,827.001 L1272.32,839.875 L1202.88,820.512 L1202.88,807.637 "/>
<path class="Beam" fill-rule="evenodd" d="M1520.6,795.472 L1716.7,795.472 L1716.7,807.874 L1520.6,807.874 L1520.6,795.472 "/>
<path class="Beam" fill-rule="evenodd" d="M1778.43,807.874 L1974.54,807.874 L1974.54,820.276 L1778.43,820.276 L1778.43,807.874 "/>
<path class="Beam" fill-rule="evenodd" d="M2170.98,801.364 L2231.85,781.888 L2231.85,794.909 L2170.98,814.384 L2170.98,801.364 "/>
<path class="Beam" fill-rule="evenodd" d="M648.832,659.181 L778.721,652.847 L778.721,665.263 L648.832,671.597 L648.832,659.181 "/>
<path class="Beam" fill-rule="evenodd" d="M1299.1,628.051 L1444.69,628.051 L1444.69,640.453 L1299.1,640.453 L1299.1,628.051 "/>
<path class="Beam" fill-rule="evenodd" d="M1872.4,597.281 L2004.05,584.617 L2004.05,597.076 L1872.4,609.74 L1872.4,597.281 "/>
<path class="Tempo" d="M543.673,526.802 L540.376,526.802 L540.376,571.771 C539.236,571.099 537.861,570.677 536.283,570.505 C535.845,570.458 535.392,570.443 534.939,570.443 C532.22,570.443 529.283,571.224 526.548,572.708 C523.361,574.427 520.798,576.896 519.376,579.63 C517.923,582.396 517.783,585.099 518.954,587.271 C520.329,589.849 523.345,591.177 526.892,591.177 C529.533,591.177 532.486,590.443 535.298,588.927 C540.439,586.146 543.658,581.552 543.673,577.552 L543.673,526.802 "/>
<path class="Tempo" d="M565.251,579.13 L595.486,579.13 L595.486,572.224 L565.251,572.224 L565.251,579.13 M565.251,566.771 L595.486,566.771 L595.486,559.864 L565.251,559.864 L565.251,566.771 M637.454,542.161 L635.345,542.161 C631.564,544.989 627.314,546.193 620.173,546.302 L620.173,549.661 L622.689,549.661 C628.033,549.661 628.095,549.786 628.033,554.708 L628.033,576.005 C628.033,579.724 628.033,579.911 627.611,580.505 C627.064,581.161 625.861,581.411 622.626,581.411 L620.704,581.411 L620.704,584.646 L644.642,584.646 L644.642,581.411 L642.72,581.411 C639.548,581.411 638.408,581.161 637.861,580.505 C637.454,579.911 637.454,579.661 637.454,576.005 L637.454,542.161 M677.814,568.693 L677.142,571.693 C676.611,574.083 676.251,574.864 675.767,575.161 C675.173,575.583 675.048,575.583 671.267,575.646 L659.689,575.646 C661.783,573.849 663.345,572.708 665.689,571.146 C674.142,565.693 675.892,564.364 677.626,562.146 C679.673,559.443 680.861,556.271 680.861,553.443 C680.861,547.021 674.564,542.161 666.111,542.161 C657.954,542.161 651.642,547.443 651.642,554.286 C651.642,558.489 653.986,561.193 657.595,561.193 C660.704,561.193 662.689,559.208 662.689,556.083 C662.689,553.505 661.548,552.005 658.783,550.693 C658.126,550.38 657.829,550.021 657.829,549.552 C657.829,547.63 661.064,545.583 664.064,545.583 C668.267,545.583 670.673,548.161 670.673,552.614 C670.673,557.583 668.751,561.13 662.392,567.911 C655.673,575.052 653.329,577.739 650.329,582.068 L650.329,584.88 C651.892,584.708 652.548,584.646 653.454,584.646 L676.001,584.646 C677.142,584.646 677.861,584.708 679.673,584.88 L681.048,568.693 L677.814,568.693 M700.408,542.161 C691.408,542.161 684.814,551.349 684.814,563.833 C684.814,576.302 691.408,585.489 700.408,585.489 C709.22,585.489 715.954,576.302 715.954,564.13 C715.954,557.052 714.329,551.833 710.783,547.38 C707.97,543.974 704.423,542.161 700.408,542.161 M700.345,545.286 C702.142,545.286 703.595,546.364 704.251,548.286 C705.033,550.271 705.501,556.568 705.501,564.005 C705.501,570.193 705.033,576.661 704.486,578.708 C703.829,581.099 702.392,582.364 700.345,582.364 C698.486,582.364 697.111,581.349 696.392,579.364 C695.611,577.38 695.126,571.021 695.126,563.833 C695.126,557.521 695.611,550.989 696.142,548.943 C696.814,546.552 698.251,545.286 700.345,545.286"/>
<path class="NoteDot" transform="matrix(0.992126,0,0,0.992126,1075.15,696.26)" d="M0,0 C0,2.76563 2.23438,5 5,5 C7.76563,5 10,2.76563 10,0 C10,-2.76563 7.76563,-5 5,-5 C2.23438,-5 0,-2.76563 0,0"/>
<path class="NoteDot" transform="matrix(0.992126,0,0,0.992126,1694.15,671.457)" d="M0,0 C0,2.76563 2.23438,5 5,5 C7.76563,5 10,2.76563 10,0 C10,-2.76563 7.76563,-5 5,-5 C2.23438,-5 0,-2.76563 0,0"/>
</svg>
